<?xml version="1.0" encoding="UTF-8"?>
<svg xmlns="http://www.w3.org/2000/svg" xmlns:xlink="http://www.w3.org/1999/xlink" width="3750" height="3710" viewBox="1500 0 3750 3420">
<path fill-rule="nonzero" fill="rgb(0%, 0%, 0%)" fill-opacity="1" d="M 10.675781 3675.210938 C -1.382812 3618.265625 -2.195312 3606.429688 3.140625 3565.34375 C 17.894531 3451.792969 81.324219 3349.816406 214.261719 3225.917969 C 320.21875 3127.167969 446.300781 3043.925781 626.695312 2953.617188 L 714.691406 2909.5625 L 717.75 2874.082031 C 721.78125 2827.261719 729.648438 2794.410156 747.273438 2750.746094 C 779.710938 2670.390625 808.648438 2634.898438 904.785156 2557.578125 C 965.957031 2508.371094 1008.03125 2458.550781 1033.320312 2405.351562 C 1045.210938 2380.328125 1046.519531 2373.550781 1046.578125 2336.339844 C 1046.609375 2313.648438 1045.121094 2293.558594 1043.25 2291.691406 C 1037.789062 2286.230469 1021.429688 2309.988281 992.914062 2364.800781 C 947.003906 2453.03125 930.253906 2473.03125 837.492188 2550.398438 C 755.417969 2618.859375 718.832031 2658.261719 685.738281 2713.820312 C 677.671875 2727.359375 670.535156 2736.832031 669.882812 2734.867188 C 669.226562 2732.902344 673.636719 2718.15625 679.679688 2702.101562 C 697.394531 2655.039062 702.976562 2623.261719 707.265625 2545.140625 C 710.554688 2485.238281 713.277344 2465.730469 721.878906 2440.511719 C 736.996094 2396.148438 753.148438 2368.398438 778.878906 2342.578125 C 806.066406 2315.289062 840.128906 2297.570312 916.527344 2270.941406 C 948.183594 2259.910156 983.40625 2245.851562 994.800781 2239.691406 C 1021.289062 2225.390625 1051.050781 2199.191406 1063.851562 2178.921875 C 1076.378906 2159.058594 1088.269531 2118.96875 1086.230469 2103.410156 C 1084.800781 2092.488281 1084.308594 2092.929688 1079.480469 2109.359375 C 1071 2138.269531 1041.371094 2178.308594 1013.019531 2199.179688 C 979.742188 2223.679688 967.484375 2228.558594 912.667969 2239.148438 C 856.511719 2250 821.742188 2266.320312 787.753906 2297.789062 L 761.6875 2321.929688 L 764.800781 2307.078125 C 769.460938 2284.859375 785.714844 2245.96875 801.832031 2218.480469 C 810.410156 2203.859375 840.296875 2170.109375 876.378906 2134.300781 C 930.777344 2080.328125 952.558594 2051.601562 944.894531 2043.941406 C 943.472656 2042.519531 940.519531 2045.941406 938.332031 2051.550781 C 933.644531 2063.570312 913.289062 2082.859375 886.777344 2100.390625 C 838.074219 2132.601562 784.488281 2196.78125 750.3125 2263.839844 C 745.109375 2274.039062 739.917969 2281.460938 738.773438 2280.308594 C 737.628906 2279.171875 741.457031 2257.078125 747.28125 2231.238281 C 763.996094 2157.03125 786.539062 2117.449219 852.429688 2046.609375 C 874.734375 2022.628906 893.746094 2000.96875 894.679688 1998.46875 C 897.511719 1990.898438 848.414062 2033.761719 807.179688 2074.859375 C 764.773438 2117.121094 743.796875 2149.820312 726.230469 2201.019531 C 706.238281 2259.300781 702.832031 2283.871094 698.824219 2398.949219 C 692.40625 2583.109375 685.425781 2633.460938 656.085938 2707.121094 C 640.171875 2747.074219 627.488281 2767.074219 598.871094 2797.332031 C 557.78125 2840.78125 507.890625 2862.285156 449.355469 2861.773438 C 413.898438 2861.464844 382.078125 2854.441406 413.398438 2853.835938 C 448.421875 2853.160156 514.980469 2824.449219 545.101562 2797.019531 C 623.019531 2726.074219 634.34375 2614.25 581.089844 2441.628906 C 536.972656 2298.640625 531.050781 2270.160156 530.945312 2200.460938 C 530.847656 2135.210938 541.402344 2084.269531 565.839844 2032.121094 C 603.03125 1952.761719 647.125 1906.148438 737.003906 1851.191406 C 756.859375 1839.050781 771.132812 1829.109375 768.714844 1829.109375 C 763.046875 1829.109375 678.367188 1860.46875 646.414062 1874.410156 C 531.246094 1924.628906 454.277344 2007.789062 421.683594 2117.230469 C 398.101562 2196.410156 404.992188 2296.351562 437.875 2352.078125 C 442.242188 2359.480469 449.152344 2371.128906 453.230469 2377.980469 C 458.554688 2386.898438 455.402344 2384.859375 442.050781 2370.71875 C 405.125 2331.621094 378.863281 2276.640625 364.886719 2209.210938 C 349.910156 2136.949219 359.710938 2042.878906 389.152344 1976.308594 C 414.683594 1918.578125 466.851562 1854.5 518.289062 1817.679688 C 546.007812 1797.839844 600.726562 1769.351562 611.125 1769.351562 C 614.445312 1769.351562 618.226562 1767.628906 619.527344 1765.53125 C 620.898438 1763.308594 596.425781 1762.621094 561.085938 1763.898438 C 525.464844 1765.179688 490.15625 1764.179688 475.832031 1761.480469 C 416.144531 1750.230469 341.199219 1705.5 302.867188 1658.25 C 281.410156 1631.789062 278.917969 1621.230469 298.601562 1640.171875 C 318.351562 1659.171875 351.183594 1674.371094 389.644531 1682.328125 C 426.757812 1690 450.941406 1688.269531 478.789062 1675.960938 C 495.6875 1668.480469 497.449219 1666.140625 502.09375 1644.980469 C 526.488281 1533.820312 538.515625 1519.550781 640.488281 1480.691406 C 748.292969 1439.609375 823.71875 1382.25 876.902344 1300.890625 C 889.5625 1281.519531 900.65625 1265.679688 901.558594 1265.679688 C 903.394531 1265.679688 894.304688 1297.671875 881.546875 1336.109375 C 860.898438 1398.308594 829.378906 1437.96875 780.390625 1463.410156 C 764.84375 1471.488281 718.136719 1489.019531 676.601562 1502.359375 C 595.609375 1528.378906 576.4375 1538.839844 556.273438 1567.988281 C 546.273438 1582.441406 525.074219 1641.300781 529.867188 1641.300781 C 530.582031 1641.300781 544.410156 1628.339844 560.59375 1612.488281 C 602.949219 1571.019531 628.375 1560.179688 728.644531 1540.800781 C 820.648438 1523.019531 878.34375 1484.601562 908.59375 1420.960938 C 920.394531 1396.140625 924.417969 1378.460938 940.285156 1281.75 C 945.894531 1247.558594 949.941406 1235.808594 963.164062 1215.359375 C 971.996094 1201.691406 986.660156 1184.371094 995.746094 1176.890625 C 1011.570312 1163.839844 1038.660156 1151.691406 1042.769531 1155.800781 C 1043.839844 1156.871094 1038.910156 1170.03125 1031.808594 1185.039062 C 1016.011719 1218.449219 1015.039062 1245.769531 1027.480469 1306.820312 C 1036.628906 1351.75 1075.230469 1440.679688 1085.570312 1440.679688 C 1095.550781 1440.679688 1095.371094 1447.640625 1084.859375 1468.410156 C 1079.101562 1479.78125 1074.390625 1493.558594 1074.390625 1499.03125 C 1074.390625 1513.929688 1068.550781 1511.289062 1046.800781 1486.570312 C 1023.539062 1460.128906 1002.101562 1418.890625 998.792969 1394.230469 C 995.691406 1371.128906 990.699219 1371.910156 987.078125 1396.070312 C 984.164062 1415.511719 986.335938 1435.320312 993.140625 1451.359375 C 995.136719 1456.050781 999.179688 1469.25 1002.128906 1480.679688 C 1006.050781 1495.890625 1013.878906 1508.339844 1031.339844 1527.128906 C 1044.449219 1541.25 1061.929688 1562.480469 1070.179688 1574.308594 C 1078.421875 1586.128906 1087.210938 1596.488281 1089.710938 1597.320312 C 1095.210938 1599.148438 1104.269531 1580.539062 1104.269531 1567.421875 C 1104.269531 1545.160156 1144.519531 1429.820312 1194.671875 1308.359375 C 1209.46875 1272.53125 1213.839844 1243.730469 1207.140625 1226.191406 C 1203.039062 1215.480469 1200.730469 1214.460938 1180.53125 1214.460938 C 1158.570312 1214.460938 1158.160156 1214.199219 1127.609375 1182.441406 C 1110.679688 1164.839844 1094.648438 1150.429688 1092.011719 1150.429688 C 1077.019531 1150.429688 1103.328125 1213.839844 1126.890625 1234.5 C 1140.878906 1246.761719 1165.199219 1257.050781 1180.351562 1257.121094 C 1190.179688 1257.160156 1183.628906 1271.78125 1171.078125 1277.789062 C 1152.109375 1286.878906 1131.820312 1280.640625 1108.019531 1258.371094 C 1074.300781 1226.839844 1068.511719 1214.570312 1071.488281 1181 L 1074.019531 1152.558594 L 1055.140625 1133.558594 C 1044.761719 1123.109375 1036.769531 1114.070312 1037.378906 1113.460938 C 1039.839844 1110.988281 1163.769531 1073.601562 1169.488281 1073.601562 C 1172.890625 1073.601562 1180.808594 1078.738281 1187.109375 1085.03125 C 1193.390625 1091.320312 1202.78125 1098.550781 1207.960938 1101.101562 C 1222.128906 1108.058594 1232.308594 1132.210938 1232.339844 1158.960938 C 1232.371094 1187.28125 1237.648438 1207.808594 1254.078125 1243.570312 C 1260.890625 1258.398438 1266.46875 1273.980469 1266.46875 1278.179688 C 1266.46875 1282.371094 1252.46875 1301.929688 1235.359375 1321.628906 C 1174.261719 1391.960938 1162.628906 1412.441406 1130.378906 1506.558594 C 1107.550781 1573.160156 1102.808594 1605.21875 1115.101562 1609.941406 C 1118.710938 1611.320312 1124.949219 1609.589844 1128.96875 1606.078125 C 1137.648438 1598.5 1164.261719 1593.070312 1174.128906 1596.851562 C 1192.050781 1603.730469 1171.570312 1627.308594 1152.460938 1621.808594 C 1145.910156 1619.910156 1130.789062 1618.109375 1118.851562 1617.808594 C 1098.738281 1617.28125 1096.46875 1618.269531 1087.910156 1631.339844 C 1075.5 1650.269531 1076.25 1656.699219 1091.460938 1662 C 1107.878906 1667.730469 1108.429688 1680.710938 1092.558594 1687.941406 C 1086.128906 1690.878906 1062.601562 1695.058594 1040.269531 1697.21875 C 1017.949219 1699.390625 991.046875 1702.988281 980.484375 1705.21875 C 969.917969 1707.449219 945.910156 1711.339844 927.128906 1713.871094 C 857.792969 1723.199219 814.015625 1733.351562 814.015625 1740.089844 C 814.015625 1742.609375 816.898438 1743.550781 820.417969 1742.199219 C 830.019531 1738.519531 1016.488281 1710.609375 1051.351562 1707.640625 C 1074.839844 1705.640625 1082.808594 1706.441406 1086.730469 1711.179688 C 1090.980469 1716.289062 1088.308594 1717.769531 1070.300781 1720.238281 C 1058.46875 1721.871094 1047.820312 1724.761719 1046.640625 1726.671875 C 1045.460938 1728.578125 1034.898438 1731.460938 1023.160156 1733.070312 C 1011.429688 1734.691406 1001.820312 1737.441406 1001.820312 1739.199219 C 1001.820312 1740.949219 1010.558594 1741.058594 1021.238281 1739.441406 C 1044.621094 1735.890625 1041.140625 1740.25 1014.628906 1747.710938 C 984.410156 1756.21875 810.296875 1848.160156 815.167969 1853.03125 C 815.875 1853.738281 846.15625 1839.070312 882.460938 1820.441406 C 918.765625 1801.820312 961.917969 1780.878906 978.351562 1773.921875 C 994.78125 1766.960938 1024.558594 1754.210938 1044.511719 1745.578125 C 1089.960938 1725.910156 1101.660156 1724.769531 1103.410156 1739.808594 C 1104.570312 1749.730469 1101.820312 1752.019531 1075.671875 1762.949219 C 1059.710938 1769.621094 1041.839844 1778.351562 1035.96875 1782.339844 C 1017.71875 1794.769531 983.355469 1810.941406 928.605469 1832.898438 C 852.75 1863.328125 842.730469 1867.78125 845.035156 1870.089844 C 849.160156 1874.210938 994.328125 1816.269531 1030.679688 1795.988281 C 1089.019531 1763.441406 1133.738281 1743.738281 1149.28125 1743.738281 C 1157.109375 1743.738281 1164.730469 1741.789062 1166.199219 1739.410156 C 1167.679688 1737.019531 1170.699219 1736.191406 1172.929688 1737.570312 C 1175.148438 1738.941406 1175.769531 1742.011719 1174.300781 1744.390625 C 1170.21875 1750.988281 1134.859375 1765.089844 1122.390625 1765.089844 C 1116.320312 1765.089844 1108.308594 1767.738281 1104.609375 1770.988281 C 1100.898438 1774.238281 1085.820312 1781.230469 1071.089844 1786.539062 C 1033.429688 1800.101562 1040.621094 1801.539062 1080.691406 1788.460938 C 1098.980469 1782.488281 1114.839844 1778.5 1115.941406 1779.601562 C 1120.269531 1783.929688 1111.019531 1791.480469 1085.820312 1804.160156 C 1064.808594 1814.75 1030.320312 1835.769531 1019.261719 1844.738281 C 1018.28125 1845.53125 1018.75 1847.449219 1020.300781 1849 C 1021.851562 1850.558594 1026.558594 1848.710938 1030.769531 1844.890625 C 1041.148438 1835.5 1115.738281 1800.789062 1133.511719 1797.078125 C 1147.039062 1794.261719 1147.640625 1794.640625 1144.71875 1804.140625 C 1143.03125 1809.660156 1139.960938 1816.28125 1137.898438 1818.871094 C 1129.878906 1828.941406 1128.730469 1861.46875 1135.910156 1875.339844 C 1142.308594 1887.710938 1144.679688 1888.871094 1163.589844 1888.871094 C 1189.019531 1888.871094 1215.230469 1877.828125 1260.070312 1848.230469 C 1301.828125 1820.671875 1327.289062 1795.511719 1339.308594 1769.941406 C 1351.808594 1743.359375 1347.339844 1730.96875 1305.140625 1675.140625 C 1278.859375 1640.371094 1266.128906 1627.339844 1249.671875 1618.390625 C 1213.769531 1598.851562 1183.589844 1568.140625 1175.421875 1542.871094 C 1168.011719 1519.910156 1166.378906 1503.789062 1170.988281 1499.171875 C 1174.859375 1495.308594 1189.589844 1503.671875 1205.601562 1518.820312 L 1219.421875 1531.898438 L 1229.898438 1522.058594 C 1242.230469 1510.46875 1249.128906 1511.191406 1312.078125 1530.558594 C 1360.230469 1545.390625 1366.828125 1545.679688 1402.378906 1534.539062 C 1417.25 1529.871094 1440.441406 1526.050781 1453.910156 1526.050781 C 1475.039062 1526.050781 1481.269531 1528.101562 1499.398438 1540.988281 C 1510.960938 1549.210938 1522.089844 1555.929688 1524.128906 1555.929688 C 1526.179688 1555.929688 1534.410156 1550.171875 1542.441406 1543.121094 C 1556.03125 1531.191406 1559.328125 1530.320312 1591.019531 1530.320312 C 1630.089844 1530.320312 1631.769531 1532.519531 1612.78125 1558.75 C 1585.5 1596.390625 1540.148438 1624.789062 1493.691406 1633.289062 C 1480.230469 1635.75 1463.160156 1641.488281 1455.75 1646.039062 C 1439.378906 1656.089844 1398.070312 1706.449219 1390.429688 1725.679688 C 1374.019531 1766.96875 1404.578125 1808.691406 1482.628906 1851.609375 C 1498.730469 1860.460938 1520.808594 1874.410156 1531.699219 1882.609375 C 1553.558594 1899.070312 1589.289062 1908.199219 1618.621094 1904.828125 C 1628.011719 1903.75 1654.339844 1894.121094 1677.128906 1883.429688 C 1710.179688 1867.941406 1719.128906 1861.820312 1721.289062 1853.199219 C 1724.949219 1838.589844 1718.75 1828.601562 1713.988281 1841.460938 C 1709.390625 1853.890625 1701.851562 1849.039062 1701.851562 1833.648438 C 1701.851562 1821.988281 1701.289062 1821.691406 1683.351562 1823.710938 C 1665.679688 1825.699219 1637.828125 1816.53125 1637.820312 1808.730469 C 1637.820312 1807.03125 1650.789062 1805.308594 1666.628906 1804.910156 C 1682.480469 1804.519531 1705.53125 1802.890625 1717.859375 1801.300781 C 1732.53125 1799.410156 1740.269531 1799.960938 1740.269531 1802.898438 C 1740.269531 1810.730469 1843.691406 1867.058594 1890.730469 1884.851562 C 1904.230469 1889.949219 1925.839844 1901.53125 1938.75 1910.570312 C 1951.660156 1919.621094 1962.230469 1925.558594 1962.230469 1923.761719 C 1962.230469 1917.28125 1920.589844 1889.570312 1868.320312 1861.269531 C 1838.980469 1845.371094 1804.449219 1826.351562 1791.609375 1819 C 1778.761719 1811.648438 1762.71875 1803.640625 1755.960938 1801.199219 L 1743.679688 1796.769531 L 1758.96875 1788.53125 C 1770.988281 1782.058594 1775.378906 1781.410156 1779.460938 1785.5 C 1783.550781 1789.578125 1783.109375 1790.691406 1777.398438 1790.691406 C 1773.410156 1790.691406 1770.140625 1792.621094 1770.140625 1794.960938 C 1770.140625 1797.308594 1775.5 1799.230469 1782.050781 1799.230469 C 1788.589844 1799.230469 1801.488281 1803.070312 1810.691406 1807.769531 C 1819.910156 1812.460938 1828.910156 1816.308594 1830.699219 1816.308594 C 1832.488281 1816.308594 1846.96875 1822.28125 1862.878906 1829.570312 C 1878.789062 1836.871094 1900.460938 1846.269531 1911.050781 1850.449219 C 1951.398438 1866.398438 2032.230469 1921.269531 2054.910156 1948.121094 C 2060.109375 1954.269531 2064.429688 1957.339844 2064.519531 1954.941406 C 2064.859375 1945.089844 2036.050781 1917.070312 1999.050781 1891.269531 C 1977.398438 1876.179688 1926.160156 1847.238281 1885.191406 1826.960938 C 1844.21875 1806.691406 1801.378906 1784.769531 1789.988281 1778.269531 L 1769.28125 1766.429688 L 1701.660156 1768.410156 C 1636.050781 1770.339844 1633.089844 1770.050781 1601.789062 1758.628906 C 1584.039062 1752.160156 1569.53125 1745.199219 1569.53125 1743.171875 C 1569.53125 1736.488281 1594.039062 1739.308594 1615.058594 1748.398438 C 1626.410156 1753.308594 1642.828125 1757.71875 1651.550781 1758.210938 C 1660.269531 1758.699219 1668.738281 1760.429688 1670.359375 1762.058594 C 1671.988281 1763.679688 1675.421875 1763.339844 1677.980469 1761.300781 C 1684.851562 1755.839844 1731.890625 1752.949219 1746.410156 1757.101562 C 1755.519531 1759.699219 1760.859375 1758.949219 1765.949219 1754.351562 C 1777.570312 1743.839844 1791 1747.03125 1822.140625 1767.730469 C 1838.449219 1778.578125 1866.558594 1793.679688 1884.609375 1801.289062 C 1934.398438 1822.289062 1978.519531 1845.359375 2002.511719 1862.929688 C 2046.539062 1895.179688 2046.140625 1889.800781 2001.808594 1853.558594 C 1977.890625 1834.019531 1865.25 1769.359375 1855.109375 1769.359375 C 1853.488281 1769.359375 1851.140625 1766.691406 1849.878906 1763.429688 C 1848.628906 1760.160156 1838.820312 1754.140625 1828.089844 1750.039062 C 1810.261719 1743.230469 1802.101562 1735.210938 1813 1735.210938 C 1819.609375 1735.210938 1850.230469 1751.460938 1851.921875 1755.871094 C 1852.71875 1757.96875 1868.550781 1764.898438 1887.089844 1771.261719 C 1949.070312 1792.539062 2065.378906 1849.339844 2089.828125 1870.269531 C 2114.449219 1891.339844 2118.230469 1900.550781 2130.921875 1970.449219 C 2137.050781 2004.230469 2145.839844 2050.710938 2150.460938 2073.738281 C 2167.789062 2160.300781 2168.488281 2299.070312 2152.039062 2387.300781 C 2133.371094 2487.429688 2090.230469 2577.738281 2030.640625 2641.441406 C 1982.789062 2692.589844 2012.21875 2671.5 2072.679688 2611.300781 C 2138.660156 2545.621094 2164.691406 2509.339844 2239.261719 2379.078125 C 2320.910156 2236.429688 2330.628906 2207.621094 2331.121094 2106.558594 C 2331.511719 2027.03125 2324.839844 1998.78125 2287.949219 1923.609375 C 2259.660156 1865.96875 2233.621094 1837.019531 2182.148438 1805.96875 C 2133.109375 1776.390625 2100.980469 1750.511719 2081.859375 1725.179688 C 2055.378906 1690.109375 2047.78125 1669.5 2047.789062 1632.769531 C 2047.808594 1594.78125 2052.691406 1571.359375 2067.820312 1536.71875 C 2085.980469 1495.179688 2087.039062 1495.121094 2095.039062 1535.140625 C 2104.21875 1581.109375 2116.328125 1612.710938 2137.050781 1644.769531 C 2157.03125 1675.679688 2182.230469 1696.238281 2247.839844 1735.160156 C 2339.839844 1789.730469 2391.109375 1839.140625 2422.808594 1903.808594 C 2446.171875 1951.460938 2450.949219 1977.558594 2450.589844 2055.339844 C 2450.300781 2118.859375 2449.148438 2129.429688 2438.910156 2163.070312 C 2427.640625 2200.078125 2415.851562 2227.550781 2397.800781 2258.878906 C 2389.929688 2272.53125 2392.800781 2270.53125 2415.519531 2246.539062 C 2488.050781 2169.941406 2517.640625 2072.539062 2497.710938 1976.03125 C 2494.070312 1958.429688 2484.699219 1922.949219 2476.878906 1897.179688 C 2469.050781 1871.410156 2464.351562 1849.28125 2466.421875 1848 C 2468.488281 1846.71875 2478.199219 1858.25 2488.011719 1873.628906 C 2497.808594 1889.011719 2506.480469 1900.941406 2507.28125 1900.140625 C 2511.570312 1895.851562 2486.949219 1785.558594 2477.558594 1767.03125 C 2471.640625 1755.359375 2437.789062 1712.640625 2402.328125 1672.121094 C 2366.859375 1631.589844 2337.851562 1597.578125 2337.851562 1596.550781 C 2337.851562 1595.511719 2346.96875 1601.238281 2358.128906 1609.269531 C 2419.5 1653.488281 2538.769531 1733.53125 2587.128906 1762.949219 C 2618.109375 1781.789062 2634.75 1795.328125 2650.101562 1814.171875 C 2679.238281 1849.941406 2706.828125 1905.480469 2720.230469 1955.371094 C 2730.289062 1992.851562 2731.851562 2007.890625 2733.738281 2086.261719 C 2736.070312 2182.71875 2732.21875 2228.761719 2715.578125 2303.910156 C 2699.441406 2376.789062 2696.679688 2374.710938 2696.53125 2289.589844 C 2696.320312 2172.941406 2681.839844 2111.359375 2622.820312 1976.371094 C 2564.359375 1842.671875 2514.949219 1751.890625 2491.558594 1735.238281 C 2473.949219 1722.699219 2472.671875 1724.558594 2484.988281 1744.808594 C 2499.058594 1767.941406 2515.789062 1803.410156 2547.589844 1877.589844 C 2561.539062 1910.121094 2584.28125 1961.019531 2598.128906 1990.699219 C 2646.820312 2095.070312 2670.980469 2185.058594 2679.960938 2295.429688 C 2685.519531 2363.878906 2680.46875 2439.628906 2668.398438 2468.5 C 2659.960938 2488.710938 2663.300781 2490.148438 2678.859375 2472.988281 C 2696.160156 2453.898438 2714.78125 2418.589844 2727.550781 2380.628906 C 2733.308594 2363.511719 2739.609375 2349.109375 2741.539062 2348.621094 C 2752.980469 2345.71875 2760.050781 2459.089844 2751.738281 2512.058594 C 2738.308594 2597.640625 2669.410156 2736.15625 2602.578125 2811.921875 C 2573.550781 2844.828125 2590.839844 2835.082031 2627.511719 2797.863281 C 2670.871094 2753.859375 2708.839844 2700.429688 2735.050781 2646.519531 C 2775.890625 2562.519531 2789.621094 2486.148438 2781.320312 2389.121094 L 2776.730469 2335.371094 L 2788.808594 2326.609375 C 2879.269531 2260.941406 2929.480469 2194.578125 2973.851562 2082.019531 C 2981.480469 2062.648438 2989.269531 2046.800781 2991.148438 2046.800781 C 2998.03125 2046.800781 3038.71875 2163.800781 3053.511719 2226.078125 C 3075.648438 2319.320312 3070.621094 2452.070312 3039.679688 2591.03125 C 3031.058594 2629.738281 2998.011719 2695.921875 2962.339844 2745.902344 C 2892.359375 2843.96875 2806.640625 2910.601562 2634.5 3000.761719 C 2608.679688 3014.285156 2585.730469 3027.03125 2583.5 3029.082031 C 2581.269531 3031.132812 2576.53125 3032.8125 2572.96875 3032.8125 C 2563.980469 3032.8125 2602.890625 2993.878906 2664.5 2941.222656 C 2768.128906 2852.65625 2834.199219 2773.210938 2877.640625 2684.929688 C 2925.921875 2586.828125 2937.71875 2537.800781 2937.230469 2437.359375 C 2937.050781 2399.800781 2934.789062 2358.5 2932.21875 2345.589844 C 2927.140625 2320.121094 2919.109375 2296.460938 2916.449219 2299.121094 C 2915.539062 2300.03125 2912.570312 2324.789062 2909.871094 2354.128906 C 2898.488281 2477.371094 2879.25 2556.851562 2840.511719 2640.699219 C 2789.320312 2751.492188 2662.210938 2888.902344 2512.28125 2995.507812 C 2425.089844 3057.503906 2319.78125 3092.570312 2220.78125 3092.570312 C 2162.519531 3092.570312 2026.761719 3080.410156 1999.570312 3072.757812 C 1982.25 3067.878906 1994.019531 3079.457031 2016.648438 3089.546875 C 2035.199219 3097.820312 2099.640625 3113.914062 2114.230469 3113.914062 C 2129.390625 3113.914062 2023.289062 3173.285156 1935.621094 3213.859375 C 1861.449219 3248.179688 1735.601562 3289.148438 1647.359375 3307.695312 C 1491.578125 3340.441406 1281.039062 3353.121094 1138.421875 3338.347656 C 1106.71875 3335.066406 1058.699219 3331.125 1031.710938 3329.585938 C 977.390625 3326.496094 850.371094 3316.796875 777.734375 3310.195312 C 714.71875 3304.46875 514.019531 3304.667969 461.425781 3310.507812 C 267.898438 3332.003906 117.003906 3411.480469 59.625 3522.132812 C 35.070312 3569.484375 24.160156 3609.121094 20.785156 3663.242188 L 17.910156 3709.359375 Z M 1174.800781 3312.507812 C 1308.808594 3301.523438 1397.480469 3280.644531 1482.03125 3240.167969 C 1658.898438 3155.488281 1798.039062 3029.488281 1864.191406 2894.089844 C 1889.390625 2842.523438 1907.769531 2786.800781 1919.640625 2725.984375 C 1924.511719 2701.058594 1930.320312 2672.609375 1932.550781 2662.769531 C 1941.289062 2624.261719 1934.871094 2632.390625 1894.789062 2710.542969 C 1809.308594 2877.238281 1763.800781 2939.394531 1670.539062 3016.808594 C 1609.761719 3067.261719 1608.101562 3068.535156 1605.910156 3066.34375 C 1604.898438 3065.335938 1606.800781 3049.214844 1610.128906 3030.519531 C 1618.109375 2985.714844 1618.058594 2915.214844 1610.019531 2872.746094 C 1602.058594 2830.765625 1578.878906 2759.632812 1573.160156 2759.632812 C 1570.851562 2759.632812 1569.988281 2762.992188 1571.238281 2767.101562 C 1572.5 2771.210938 1578.660156 2799.542969 1584.949219 2830.0625 C 1594.441406 2876.144531 1596.449219 2897.488281 1596.828125 2955.980469 C 1597.410156 3047.355469 1594.238281 3058.714844 1557.058594 3098.121094 C 1478.710938 3181.179688 1266.460938 3284.421875 1127.75 3306.945312 C 1111.320312 3309.613281 1096.050781 3313.371094 1093.820312 3315.296875 C 1088.628906 3319.777344 1084.320312 3319.925781 1174.800781 3312.507812 Z M 487.902344 3130.175781 C 530.976562 3110.515625 626.738281 3071.476562 691.640625 3047.113281 C 719.414062 3036.691406 761.671875 3019.535156 785.546875 3008.996094 C 828.761719 2989.914062 895.113281 2952.519531 895.113281 2947.246094 C 895.113281 2945.722656 875.285156 2954.417969 851.046875 2966.566406 C 826.808594 2978.714844 769.667969 3000.839844 724.0625 3015.734375 C 624.085938 3048.378906 570.453125 3070.335938 496.417969 3108.929688 C 444.167969 3136.167969 368.8125 3182.464844 363.96875 3190.300781 C 362.789062 3192.207031 382.601562 3182.925781 408 3169.671875 C 433.394531 3156.414062 469.351562 3138.644531 487.902344 3130.175781 Z M 745.757812 3146.125 C 930.0625 3106.066406 1038.039062 3066.988281 1127.75 3007.886719 C 1193.609375 2964.492188 1265.179688 2878.292969 1287.160156 2815.882812 L 1295.148438 2793.183594 L 1304.28125 2808.652344 C 1317.421875 2830.925781 1353.429688 2878.957031 1357.058594 2879.0625 C 1358.75 2879.109375 1353.578125 2866.078125 1345.558594 2850.105469 C 1321.269531 2801.691406 1311.71875 2757.632812 1311.621094 2693.46875 C 1311.539062 2647.300781 1313.191406 2632.628906 1321.410156 2606.121094 C 1341.601562 2541.050781 1362.5 2510.230469 1446.898438 2421.019531 C 1518.441406 2345.410156 1549.160156 2300.128906 1558.851562 2255.980469 C 1562.210938 2240.699219 1557.859375 2196.199219 1553 2196.199219 C 1551.289062 2196.199219 1547.570312 2207.449219 1544.730469 2221.210938 C 1538.921875 2249.328125 1506.109375 2316.679688 1481.339844 2351.320312 C 1453.46875 2390.28125 1412.140625 2433.621094 1366.019531 2472.25 C 1289.191406 2536.589844 1266.941406 2582.910156 1257.878906 2697.378906 C 1255.441406 2728.097656 1250.460938 2763.792969 1246.789062 2776.707031 C 1219.988281 2871.027344 1101.871094 2983.035156 948.472656 3059.566406 C 908.355469 3079.582031 802.800781 3118.59375 737.183594 3137.65625 C 623.960938 3170.554688 625.660156 3172.226562 745.757812 3146.125 Z M 2281.851562 3015.859375 C 2431.199219 2905.121094 2527.421875 2749.929688 2547.480469 2587.398438 C 2553.789062 2536.308594 2549.671875 2444.210938 2538.761719 2392.550781 C 2528.710938 2344.941406 2502.839844 2263.820312 2500.910156 2273.839844 C 2500.179688 2277.648438 2505.609375 2310.199219 2512.96875 2346.171875 C 2529.070312 2424.761719 2533.710938 2501.238281 2525.929688 2559.871094 C 2501.800781 2741.832031 2415.351562 2889.855469 2250.269531 3031.90625 C 2221.761719 3056.441406 2238.789062 3047.789062 2281.851562 3015.859375 Z M 1529.628906 2931.457031 C 1496.96875 2828.632812 1506.609375 2695.738281 1556.429688 2562.191406 C 1565.390625 2538.140625 1588.078125 2485.808594 1606.839844 2445.898438 C 1639.960938 2375.429688 1657.78125 2329.980469 1653.839844 2326.039062 C 1652.78125 2324.980469 1633.558594 2341.910156 1611.121094 2363.660156 C 1564.558594 2408.800781 1525.269531 2465.789062 1505.640625 2516.660156 C 1471.308594 2605.628906 1459.761719 2767.671875 1481.640625 2853.539062 C 1489.890625 2885.910156 1509.699219 2930.117188 1523.550781 2947.066406 C 1535.871094 2962.148438 1537.808594 2957.183594 1529.628906 2931.457031 Z M 2237.378906 2896.222656 C 2318.171875 2781.113281 2359.191406 2645.328125 2359.191406 2493.019531 C 2359.191406 2444.75 2354.21875 2428.050781 2349.289062 2459.769531 C 2327.589844 2599.539062 2312.03125 2671.640625 2288.550781 2741.234375 C 2266.480469 2806.652344 2220.949219 2906.3125 2197.25 2941.039062 C 2192.441406 2948.082031 2188.5 2955.550781 2188.480469 2957.632812 C 2188.449219 2962.5 2208.820312 2936.90625 2237.378906 2896.222656 Z M 848.164062 2847.207031 C 892.226562 2824.976562 920.097656 2802.285156 939.585938 2772.777344 C 962.480469 2738.105469 977.992188 2707.800781 995.207031 2664.089844 L 1008.460938 2630.441406 L 1036.980469 2620.839844 C 1084.320312 2604.890625 1112.558594 2577.988281 1145.261719 2517.679688 C 1156.480469 2496.980469 1173.199219 2467.558594 1182.429688 2452.300781 C 1191.640625 2437.039062 1200.28125 2422.640625 1201.609375 2420.289062 C 1202.949219 2417.941406 1193.378906 2426.589844 1180.359375 2439.5 C 1167.328125 2452.410156 1152.769531 2466.460938 1148 2470.71875 C 1143.21875 2474.980469 1133.019531 2490.339844 1125.320312 2504.871094 C 1109.359375 2534.960938 1084.46875 2569.78125 1069.578125 2582.828125 C 1053.871094 2596.589844 996.332031 2635.308594 939.933594 2670.058594 C 839.792969 2731.765625 801.152344 2769.191406 766.867188 2837.683594 C 736.488281 2898.359375 737.117188 2899.722656 785.203125 2877.390625 C 806.917969 2867.304688 835.25 2853.722656 848.164062 2847.207031 Z M 1669.839844 2718.394531 C 1756.269531 2682.210938 1819.960938 2642.730469 1864.308594 2597.859375 C 1903.421875 2558.28125 1927.269531 2523.910156 1952.300781 2471.089844 C 1998.011719 2374.578125 2011.339844 2241.171875 1985.441406 2139.191406 C 1976.589844 2104.320312 1944.609375 2038.789062 1929.921875 2025.460938 C 1920.230469 2016.660156 1918.691406 2016.210938 1921.089844 2022.871094 C 1928.820312 2044.269531 1940.988281 2097.429688 1945.390625 2129.03125 C 1951.859375 2175.46875 1951.910156 2283.570312 1945.488281 2326.390625 C 1931.25 2421.191406 1895.558594 2507.800781 1844.730469 2570.921875 C 1801.511719 2624.578125 1761.390625 2654.808594 1656.390625 2712.820312 C 1594.75 2746.878906 1580.46875 2757.324219 1618.621094 2740.449219 C 1632.699219 2734.21875 1655.75 2724.292969 1669.839844 2718.394531 Z M 1246.78125 2520.300781 C 1255.460938 2474.929688 1266.789062 2445.371094 1291.761719 2402.941406 C 1303.800781 2382.480469 1312.871094 2364.960938 1311.910156 2364 C 1309.988281 2362.078125 1285.859375 2394.671875 1271.519531 2418.570312 C 1254.730469 2446.550781 1240.75 2490.628906 1238.050781 2524.109375 C 1234.789062 2564.390625 1238.660156 2562.699219 1246.78125 2520.300781 Z M 1661.828125 2487.769531 C 1743.261719 2442.808594 1790.199219 2377.371094 1805.941406 2286.898438 C 1809.570312 2265.980469 1803.609375 2270.089844 1787.339844 2299.710938 C 1758.289062 2352.628906 1703.578125 2429.53125 1670.449219 2464.039062 C 1651.859375 2483.410156 1637.628906 2499.261719 1638.828125 2499.261719 C 1640.039062 2499.261719 1650.378906 2494.089844 1661.828125 2487.769531 Z M 1508.828125 2146.039062 C 1519.640625 2131.371094 1529.929688 2119.371094 1531.679688 2119.371094 C 1536.589844 2119.371094 1541.148438 2128.03125 1548.539062 2151.378906 L 1555.289062 2172.71875 L 1563.050781 2155.648438 C 1567.308594 2146.261719 1571.691406 2125.640625 1572.78125 2109.828125 L 1574.75 2081.078125 L 1585.730469 2089.71875 C 1600.660156 2101.460938 1613.910156 2121.921875 1621.519531 2144.980469 L 1627.859375 2164.179688 L 1630.710938 2127.101562 C 1633.941406 2085.109375 1639.191406 2067.199219 1647.289062 2070.609375 C 1650.300781 2071.871094 1658.53125 2080.25 1665.570312 2089.230469 C 1672.609375 2098.199219 1679.550781 2104.859375 1680.980469 2104.03125 C 1682.410156 2103.199219 1682.839844 2084.960938 1681.941406 2063.488281 C 1679.988281 2017.179688 1683.449219 2009.539062 1702.070312 2019.171875 C 1708.761719 2022.628906 1715.460938 2025.460938 1716.960938 2025.460938 C 1718.46875 2025.460938 1706.871094 2011.128906 1691.191406 1993.609375 C 1658.171875 1956.71875 1622.960938 1931.558594 1604.378906 1931.558594 C 1597.339844 1931.558594 1582.300781 1927.53125 1570.949219 1922.601562 C 1559.609375 1917.679688 1539.871094 1910.890625 1527.089844 1907.5 C 1514.308594 1904.121094 1501.828125 1899.699219 1499.339844 1897.679688 C 1496.859375 1895.648438 1482.78125 1887.890625 1468.050781 1880.441406 C 1442.550781 1867.519531 1438.261719 1866.761719 1378.210938 1864.449219 C 1307.429688 1861.730469 1297.941406 1863.589844 1262.140625 1887.171875 C 1249.328125 1895.609375 1232.601562 1903.089844 1224.960938 1903.789062 C 1217.308594 1904.5 1201.921875 1910.429688 1190.738281 1916.960938 C 1161.949219 1933.78125 1107.058594 1991.25 1113.558594 1997.761719 C 1114.609375 1998.808594 1126.441406 1996.550781 1139.839844 1992.730469 C 1153.238281 1988.921875 1165.390625 1986.988281 1166.839844 1988.429688 C 1168.289062 1989.878906 1166.96875 2000.019531 1163.910156 2010.960938 C 1158.019531 2032 1156.320312 2078.929688 1161.269531 2083.878906 C 1162.878906 2085.5 1169.789062 2080.210938 1176.601562 2072.140625 C 1188.761719 2057.761719 1189.128906 2057.640625 1195.589844 2066.011719 C 1199.769531 2071.429688 1202.21875 2083.75 1202.308594 2099.769531 L 1202.441406 2125 L 1261.691406 2064.800781 L 1266.289062 2086.28125 C 1271.75 2111.738281 1295.558594 2158.160156 1313.921875 2179.121094 C 1322.339844 2188.738281 1325.96875 2191.019531 1324.109375 2185.53125 C 1312.78125 2152.058594 1311.761719 2072.308594 1322.570312 2065.628906 C 1328.261719 2062.109375 1330.308594 2064.710938 1336.949219 2083.828125 C 1340.5 2094.050781 1343.429688 2097.761719 1344.769531 2093.75 C 1345.949219 2090.230469 1349.03125 2080.460938 1351.609375 2072.050781 C 1354.191406 2063.628906 1362.019531 2051.269531 1369 2044.570312 C 1375.988281 2037.878906 1381.710938 2029.878906 1381.710938 2026.800781 C 1381.710938 2015.371094 1389.390625 2021.671875 1391.921875 2035.179688 C 1393.371094 2042.871094 1403.660156 2064.148438 1414.808594 2082.46875 C 1425.949219 2100.789062 1437.949219 2121.339844 1441.46875 2128.148438 C 1444.988281 2134.949219 1449 2140.570312 1450.390625 2140.621094 C 1451.769531 2140.660156 1455.308594 2127.269531 1458.25 2110.839844 C 1461.179688 2094.421875 1465.109375 2080.03125 1466.96875 2078.878906 C 1473.851562 2074.628906 1481.960938 2105.121094 1481.289062 2132.71875 C 1480.808594 2152.269531 1477.691406 2166.78125 1471.199219 2179.671875 L 1461.808594 2198.328125 L 1475.488281 2185.53125 C 1483.019531 2178.480469 1498.019531 2160.710938 1508.828125 2146.039062 Z M 1966.5 1968.261719 C 1966.5 1967.320312 1954.011719 1954.5 1938.75 1939.769531 C 1907.75 1909.839844 1872.429688 1883.320312 1868.660156 1887.148438 C 1865.988281 1889.859375 1882.421875 1904.890625 1931.558594 1944.679688 C 1961.148438 1968.648438 1966.5 1972.25 1966.5 1968.261719 Z M 1864.050781 1914.871094 C 1864.050781 1905.460938 1818.21875 1871.230469 1776.058594 1849.148438 C 1750.769531 1835.898438 1729.339844 1825.808594 1728.429688 1826.71875 C 1724.828125 1830.320312 1736.699219 1846.179688 1743 1846.179688 C 1754.691406 1846.179688 1806.5 1875.761719 1832.53125 1897.300781 C 1858.101562 1918.460938 1864.050781 1921.769531 1864.050781 1914.871094 Z M 837.605469 1872.621094 C 836.289062 1871.308594 832.847656 1872.621094 829.949219 1875.53125 C 825.765625 1879.75 826.257812 1880.238281 832.339844 1877.929688 C 836.550781 1876.320312 838.917969 1873.929688 837.605469 1872.621094 Z M 1715.441406 1819.648438 C 1712.378906 1816.589844 1710.390625 1816.339844 1710.390625 1819.011719 C 1710.390625 1821.429688 1711.671875 1824.699219 1713.230469 1826.269531 C 1714.800781 1827.828125 1717.070312 1828.121094 1718.289062 1826.910156 C 1719.5 1825.691406 1718.21875 1822.429688 1715.441406 1819.648438 Z M 939.933594 1816.308594 C 941.382812 1813.960938 940.648438 1812.039062 938.304688 1812.039062 C 935.957031 1812.039062 932.847656 1813.960938 931.398438 1816.308594 C 929.945312 1818.648438 930.679688 1820.570312 933.027344 1820.570312 C 935.375 1820.570312 938.484375 1818.648438 939.933594 1816.308594 Z M 989.019531 1792.828125 C 1008.980469 1782.5 1023.921875 1773.949219 1022.21875 1773.839844 C 1017.398438 1773.5 975.6875 1792.679688 959.140625 1802.839844 C 934.027344 1818.25 950.667969 1812.679688 989.019531 1792.828125 Z M 871.640625 1781.089844 C 912.324219 1763.601562 954.757812 1749.21875 980.777344 1744.121094 C 999.1875 1740.511719 999.292969 1740.398438 984.738281 1739.941406 C 964.246094 1739.300781 920.808594 1752.28125 872.457031 1773.480469 C 833.34375 1790.640625 801.570312 1808.859375 826.820312 1799.660156 C 832.6875 1797.519531 852.859375 1789.171875 871.640625 1781.089844 Z M 903.652344 1696.640625 C 982.65625 1688.769531 1053.558594 1678.5 1050.050781 1675.441406 C 1048.179688 1673.808594 1016.871094 1675.929688 980.484375 1680.171875 C 944.09375 1684.398438 894.15625 1689.988281 869.503906 1692.589844 C 844.855469 1695.179688 822.765625 1698 820.417969 1698.839844 C 811.140625 1702.191406 861.273438 1700.859375 903.652344 1696.640625 Z M 1373.289062 1655.960938 C 1375.570312 1649.941406 1377.449219 1640.261719 1377.449219 1634.449219 C 1377.449219 1620.628906 1390.828125 1594.878906 1404.78125 1581.859375 C 1418.25 1569.300781 1419.46875 1561.460938 1406.550781 1570.511719 C 1399.96875 1575.121094 1395.679688 1575.730469 1391.898438 1572.601562 C 1388.300781 1569.609375 1381.621094 1569.539062 1371.289062 1572.390625 C 1362.890625 1574.710938 1356.96875 1575.058594 1358.148438 1573.148438 C 1361.128906 1568.328125 1325.261719 1563.480469 1311.738281 1566.871094 C 1300.808594 1569.621094 1296.230469 1582.601562 1304.421875 1587.660156 C 1308.859375 1590.398438 1334.769531 1643 1334.769531 1649.261719 C 1334.769531 1657.070312 1348.078125 1666.910156 1358.648438 1666.910156 C 1365.960938 1666.910156 1370.378906 1663.609375 1373.289062 1655.960938 Z M 1286.390625 1558.25 C 1286.390625 1554.839844 1284.761719 1553.050781 1282.761719 1554.28125 C 1280.769531 1555.511719 1280.238281 1558.308594 1281.589844 1560.5 C 1285.039062 1566.078125 1286.390625 1565.449219 1286.390625 1558.25 Z M 1194.519531 1178.960938 C 1205.550781 1170.570312 1213.320312 1139.75 1207.578125 1127.160156 C 1203.339844 1117.839844 1164.269531 1094.941406 1152.621094 1094.941406 C 1145.179688 1094.941406 1131.03125 1113.800781 1128.609375 1126.949219 C 1126 1141.050781 1141.25 1172.289062 1154.511719 1180.011719 C 1164.710938 1185.960938 1186.070312 1185.390625 1194.519531 1178.960938 Z M 1158.070312 1131.609375 C 1160.378906 1125.578125 1180.320312 1118.351562 1184.140625 1122.160156 C 1186 1124.03125 1163 1137.621094 1157.96875 1137.621094 C 1156.75 1137.621094 1156.800781 1134.910156 1158.070312 1131.609375 Z M 2457.359375 3318.589844 C 2418.539062 3313.863281 2312.378906 3293.691406 2305.199219 3289.671875 C 2302.359375 3288.085938 2317.671875 3286.707031 2339.21875 3286.609375 C 2364.878906 3286.496094 2392.390625 3283.058594 2418.949219 3276.652344 C 2522.449219 3251.679688 2646.289062 3190.980469 2655.96875 3160.476562 C 2657.5 3155.640625 2658.070312 3150.996094 2657.230469 3150.152344 C 2656.378906 3149.308594 2644.199219 3154.109375 2630.160156 3160.820312 C 2571.96875 3188.625 2443.320312 3225.359375 2344.25 3242.457031 C 2286.5 3252.421875 2098.308594 3258.398438 2056.128906 3251.609375 L 2032.660156 3247.828125 L 2075.339844 3244.492188 C 2130 3240.222656 2198.988281 3228.023438 2260.339844 3211.777344 C 2424.71875 3168.25 2518.730469 3121.144531 2763.449219 2959.707031 C 2796.800781 2937.703125 2836.179688 2912.148438 2850.949219 2902.917969 C 2894.300781 2875.835938 2957.230469 2826.214844 2985.300781 2796.984375 C 3061.359375 2717.78125 3145.128906 2530.46875 3165.601562 2393.859375 C 3179.261719 2302.648438 3160.449219 2196.570312 3120.21875 2137.921875 C 3118.359375 2135.210938 3116.75 2191.871094 3116.640625 2263.839844 C 3116.429688 2405.761719 3115.101562 2416.738281 3086.378906 2512.058594 C 3075.378906 2548.601562 3049.078125 2610.238281 3044.5 2610.238281 C 3043.140625 2610.238281 3045.28125 2603.03125 3049.261719 2594.230469 C 3065.609375 2558.058594 3090.101562 2477.480469 3098.800781 2431.21875 C 3107.058594 2387.320312 3108.03125 2368.441406 3107.609375 2260.21875 C 3107.050781 2119.121094 3104.640625 2105.289062 3061.828125 1996.710938 C 3048.648438 1963.289062 3037.871094 1934.941406 3037.871094 1933.710938 C 3037.871094 1932.480469 3019.480469 1891.640625 2996.988281 1842.941406 C 2973.800781 1792.730469 2943.46875 1717.46875 2926.910156 1669.039062 C 2883.71875 1542.691406 2867.269531 1509.808594 2816.359375 1447.878906 C 2767.660156 1388.671875 2690.789062 1340.628906 2593.089844 1308.378906 C 2542.679688 1291.730469 2530.75 1293.410156 2569.761719 1311.671875 C 2607.089844 1329.140625 2688.980469 1385.238281 2734.539062 1424.550781 C 2800.75 1481.691406 2849.339844 1551.621094 2870.519531 1620.210938 C 2875.269531 1635.609375 2881.320312 1671.148438 2883.960938 1699.179688 C 2886.589844 1727.210938 2889.320312 1755.429688 2890.011719 1761.878906 C 2891.898438 1779.558594 2885.710938 1775.988281 2882.738281 1757.691406 C 2878.710938 1732.839844 2838.738281 1657.570312 2813.019531 1626.378906 C 2776.480469 1582.089844 2711 1538.039062 2650.53125 1517.089844 C 2637.019531 1512.410156 2595.109375 1501.128906 2557.390625 1492.019531 C 2481.191406 1473.609375 2426.53125 1451.980469 2384.800781 1423.730469 C 2339.601562 1393.121094 2310.230469 1361.261719 2249 1276.351562 C 2228.71875 1248.230469 2229.890625 1242.5 2251.449219 1264.378906 C 2287.519531 1300.980469 2350.921875 1323.871094 2427.421875 1327.910156 L 2463.769531 1329.839844 L 2418.949219 1317.640625 C 2332.308594 1294.050781 2297.691406 1276.859375 2247.230469 1232.351562 C 2233.789062 1220.488281 2205.449219 1198.910156 2184.28125 1184.410156 C 2140.140625 1154.179688 2110.539062 1123.679688 2093 1090.390625 C 2086.289062 1077.628906 2074.761719 1058.070312 2067.390625 1046.929688 C 2054.988281 1028.171875 2052.679688 1026.660156 2036.300781 1026.648438 C 2017.269531 1026.640625 2014.148438 1023.929688 1978.898438 976.75 C 1962.210938 954.410156 1928.078125 890.921875 1928.078125 882.210938 C 1928.078125 879.238281 1922.800781 874.949219 1916.339844 872.679688 C 1909.101562 870.140625 1898.480469 859.078125 1888.628906 843.800781 C 1879.839844 830.179688 1867.890625 814.558594 1862.070312 809.101562 C 1853.179688 800.75 1850.429688 800.050781 1844.808594 804.710938 C 1838.878906 809.628906 1838.441406 808.351562 1840.859375 793.230469 C 1843.429688 777.121094 1842.628906 775.460938 1826.070312 762.339844 C 1816.441406 754.71875 1808.558594 745.871094 1808.558594 742.691406 C 1808.558594 732.199219 1800.679688 731.699219 1773.871094 740.5 C 1748.171875 748.941406 1718.929688 752.078125 1718.929688 746.398438 C 1718.929688 744.859375 1723.441406 737.660156 1728.960938 730.390625 C 1742.558594 712.5 1752.570312 692.441406 1759.648438 668.929688 C 1766.988281 644.558594 1765.199219 642.058594 1753.730469 660.621094 C 1742.71875 678.441406 1696.238281 723.089844 1676.238281 735.058594 C 1668.019531 739.980469 1655.039062 745.328125 1647.390625 746.949219 C 1631.460938 750.320312 1591.601562 784.921875 1577.660156 807.46875 C 1566.839844 824.988281 1564.671875 860.710938 1573.449219 876.808594 L 1579.03125 887.03125 L 1599.628906 864.621094 C 1623.980469 838.140625 1631.679688 838.308594 1630.789062 865.28125 C 1629.539062 903.03125 1603.320312 940.539062 1546.320312 986.128906 C 1494.808594 1027.320312 1490.679688 1032.230469 1467.03125 1080.558594 L 1446.679688 1122.121094 L 1441.578125 1096.789062 C 1426.160156 1020.070312 1424.480469 1015.441406 1401.050781 984.511719 C 1373.53125 948.179688 1367.378906 931.230469 1369.761719 898.300781 C 1371.410156 875.398438 1380.871094 855.910156 1390.320312 855.910156 C 1391.96875 855.910156 1395.03125 865.691406 1397.128906 877.660156 L 1400.929688 899.421875 L 1420.878906 872.160156 C 1431.859375 857.160156 1443.210938 839.679688 1446.109375 833.320312 C 1449.011719 826.960938 1452.789062 821.761719 1454.511719 821.761719 C 1456.230469 821.761719 1465.039062 831.5 1474.101562 843.390625 L 1490.558594 865.03125 L 1494.320312 852.140625 C 1499.511719 834.351562 1487.261719 798.011719 1469.941406 779.78125 C 1462.5 771.960938 1443.859375 758.179688 1428.5 749.179688 C 1413.148438 740.171875 1391.539062 723.121094 1380.480469 711.300781 C 1357.289062 686.5 1354.691406 689.929688 1373.519531 720.519531 C 1383.828125 737.289062 1385.441406 742.648438 1380.980469 745.46875 C 1371.71875 751.339844 1347.699219 749.679688 1309.480469 740.519531 C 1287.210938 735.179688 1272.011719 733.410156 1269.539062 735.878906 C 1267.351562 738.070312 1264.25 746.230469 1262.660156 754 C 1260.390625 765.140625 1256.011719 769.941406 1241.96875 776.699219 C 1229.019531 782.949219 1223.820312 788.210938 1222.910156 796.019531 C 1222.121094 802.78125 1218.488281 807.339844 1213.109375 808.359375 C 1203.390625 810.199219 1167.808594 837.859375 1149.789062 857.589844 C 1143.128906 864.878906 1124.699219 888.210938 1108.839844 909.441406 C 1078.238281 950.378906 1055.339844 971.328125 1029.320312 982.210938 C 1020.550781 985.871094 977.21875 995.488281 933.03125 1003.589844 C 748.742188 1037.359375 681.363281 1071.980469 586.242188 1181.78125 C 572.484375 1197.660156 560.410156 1209.839844 559.414062 1208.851562 C 556.691406 1206.121094 574.117188 1161.589844 586.757812 1138.96875 C 592.882812 1128.011719 610.277344 1105.921875 625.410156 1089.871094 C 684.117188 1027.640625 764.03125 988.5 881.25 964.53125 C 912.707031 958.109375 942.867188 949.238281 952.738281 943.519531 C 974.523438 930.890625 1012.929688 890.578125 1032.699219 859.601562 C 1045.390625 839.710938 1051.609375 834.238281 1068.679688 827.960938 C 1080.039062 823.789062 1095.808594 817.808594 1103.71875 814.660156 C 1111.640625 811.519531 1121.71875 808.949219 1126.128906 808.949219 C 1141.851562 808.949219 1133.78125 800.921875 1111.738281 794.628906 C 1034.5 772.589844 995 773.859375 938.867188 800.199219 C 917.152344 810.390625 899.382812 820.320312 899.382812 822.261719 C 899.382812 824.199219 910.425781 828.859375 923.925781 832.621094 C 966.117188 844.371094 969.871094 845.839844 967.679688 849.839844 C 962.234375 859.761719 856.65625 958.351562 851.46875 958.351562 C 832.957031 958.351562 829.621094 927.410156 846.027344 907.910156 C 858.957031 892.539062 859.234375 890.058594 848.023438 890.058594 C 830.996094 890.058594 810.070312 877.621094 797.207031 859.859375 C 790.015625 849.941406 784.136719 840.238281 784.136719 838.308594 C 784.136719 836.390625 790.378906 833.171875 798.007812 831.160156 C 809.785156 828.070312 811.832031 825.640625 811.554688 815.03125 C 811.375 808.171875 810.414062 799.960938 809.421875 796.789062 C 808.132812 792.691406 818.660156 788.230469 846.027344 781.289062 C 867.15625 775.929688 904.613281 764.269531 929.261719 755.371094 C 970.476562 740.511719 977.683594 739.210938 1018.898438 739.269531 C 1054.050781 739.308594 1069.160156 741.308594 1088.929688 748.53125 C 1122.589844 760.820312 1126.980469 760.328125 1147.21875 742.050781 C 1180.800781 711.710938 1185.871094 683.199219 1163.640625 649.640625 C 1128.691406 596.871094 1083.261719 573.480469 1004.808594 567.839844 L 972.351562 565.511719 L 982.300781 587.988281 C 987.769531 600.359375 999.039062 622 1007.339844 636.078125 C 1015.640625 650.171875 1022.058594 662.070312 1021.601562 662.539062 C 1021.140625 663.011719 998.195312 652.078125 970.617188 638.269531 C 917.191406 611.488281 883.589844 599.800781 860.082031 599.800781 C 849.097656 599.800781 842.046875 603.429688 831.089844 614.738281 C 813.164062 633.230469 801.703125 633.601562 782.007812 616.308594 C 773.628906 608.949219 765.761719 603.941406 764.523438 605.179688 C 763.28125 606.429688 761.175781 618.03125 759.839844 630.960938 C 757.457031 654.058594 757.664062 654.621094 771.046875 661.550781 C 786.125 669.339844 786.492188 678.011719 771.832031 680.160156 C 756.699219 682.378906 753.464844 699.160156 752.769531 779.109375 L 752.121094 853.828125 L 774.742188 898.058594 C 787.183594 922.371094 796.449219 943.191406 795.335938 944.308594 C 792.128906 947.511719 745.953125 933 724.085938 921.921875 C 696.339844 907.859375 660.382812 873.769531 639.519531 841.75 C 622.121094 815.050781 594.589844 748 597.472656 739.351562 C 598.28125 736.910156 604.929688 745.519531 612.242188 758.480469 C 634.742188 798.339844 673.023438 825.921875 705.984375 826 C 722.339844 826.050781 720.90625 818.398438 701.140625 800.179688 C 678.800781 779.589844 658.792969 742.191406 651.527344 707.449219 C 645.863281 680.359375 651.28125 621.78125 663.152344 581.820312 C 680.648438 522.890625 723.734375 458.78125 754.359375 446.089844 C 787.117188 432.519531 942.984375 451.328125 998.976562 475.609375 C 1023.011719 486.03125 1023.171875 486.058594 1023.171875 479.691406 C 1023.171875 473.160156 993.503906 440.980469 959.691406 410.828125 C 935.265625 389.058594 907.964844 356.5 914.132812 356.5 C 915.371094 356.5 924.976562 363.058594 935.480469 371.078125 C 945.984375 379.089844 965.691406 389.691406 979.269531 394.640625 C 992.847656 399.578125 1012.320312 406.699219 1022.550781 410.460938 C 1032.769531 414.230469 1047.878906 423.21875 1056.121094 430.460938 C 1070.53125 443.109375 1071.320312 443.300781 1077.011719 435.519531 C 1085.5 423.910156 1084.308594 383.378906 1074.871094 362.898438 C 1061.671875 334.261719 1032.480469 305.878906 981.359375 271.980469 C 947.355469 249.421875 927.554688 232.96875 915.980469 217.640625 C 894.976562 189.820312 894.722656 183.828125 915.390625 203.628906 C 947.484375 234.378906 969.980469 240.621094 1065.851562 245.351562 C 1159.621094 249.980469 1199.179688 258.710938 1257.648438 287.730469 C 1293.628906 305.570312 1317.289062 325.960938 1333.371094 352.960938 C 1348.160156 377.789062 1389.25 493.820312 1404.929688 554.980469 L 1414.769531 593.398438 L 1417.980469 572.789062 C 1423.890625 534.929688 1412.160156 490.839844 1372.929688 403.449219 C 1356.871094 367.691406 1354.5 358.359375 1352.859375 324.480469 C 1351.238281 290.949219 1352.390625 282.421875 1361.859375 257.359375 C 1401.691406 152.058594 1531.640625 56.558594 1705.308594 4.988281 C 1717.488281 1.371094 1727.460938 -0.761719 1727.460938 0.25 C 1727.460938 1.269531 1715.460938 8.148438 1700.789062 15.558594 C 1636.730469 47.878906 1574.089844 101.910156 1542.378906 152.191406 C 1523.390625 182.289062 1498.980469 240.789062 1490.640625 276.191406 C 1483.898438 304.789062 1482.441406 383.039062 1488.019531 416.261719 C 1491.199219 435.148438 1491.308594 435.261719 1494.601562 422.660156 C 1505.570312 380.71875 1575.648438 280.429688 1623.089844 238.78125 C 1684.359375 184.980469 1777.621094 134.25 1872.789062 102.929688 C 1960.191406 74.171875 2010.640625 65.460938 2098.820312 63.890625 C 2139.898438 63.171875 2168.710938 63.480469 2162.839844 64.578125 C 2102.238281 76.019531 2084.621094 81.460938 2042.039062 101.910156 C 1918.410156 161.289062 1842.691406 242.398438 1812.351562 347.960938 C 1806.058594 369.871094 1805.601562 495.75 1811.738281 516.429688 C 1815.488281 529.039062 1815.539062 528.988281 1823.039062 506.089844 C 1832.21875 478.019531 1864.71875 412.539062 1882.460938 386.378906 C 1929.859375 316.46875 2003.058594 260.941406 2079.609375 236.828125 C 2101.910156 229.808594 2124.089844 226.890625 2167.109375 225.339844 C 2237.308594 222.800781 2281.859375 229.628906 2355.449219 254.230469 C 2403.410156 270.269531 2504.769531 317.371094 2492.359375 317.859375 C 2489.300781 317.980469 2472.96875 314.71875 2456.070312 310.609375 C 2418.679688 301.519531 2310.859375 300.511719 2271.691406 308.890625 C 2200.738281 324.058594 2135.601562 353.269531 2060.398438 403.660156 C 1991.160156 450.058594 1923.988281 515.839844 1901.558594 559.25 C 1886.128906 589.121094 1872.589844 632.429688 1872.589844 651.929688 C 1872.589844 675.539062 1886.289062 707.949219 1904.351562 727.070312 L 1922.601562 746.390625 L 1952.019531 727.160156 C 1992.691406 700.578125 2015.71875 691.808594 2079.738281 678.488281 C 2118.71875 670.390625 2153.089844 666.371094 2195.921875 664.929688 C 2229.378906 663.800781 2256.75 661.398438 2256.75 659.601562 C 2256.75 649.691406 2199.589844 638.269531 2150.039062 638.269531 C 2118.609375 638.269531 2109.710938 640.871094 2084.308594 657.53125 L 2071.929688 665.640625 L 2076.789062 656.570312 C 2083.769531 643.519531 2114.878906 617.699219 2137.230469 606.410156 C 2176.691406 586.480469 2201.261719 580.789062 2248.210938 580.691406 C 2287.179688 580.609375 2297.398438 582.199219 2326.5 592.910156 C 2358.480469 604.671875 2359.839844 605.710938 2357.191406 616.378906 C 2348.621094 650.769531 2348.410156 649.980469 2366.109375 649.410156 C 2398.449219 648.371094 2385.480469 671.621094 2338.660156 698.621094 C 2313.039062 713.398438 2312.238281 717.820312 2336.378906 711.109375 C 2345.410156 708.609375 2361.230469 706.550781 2371.558594 706.53125 L 2390.320312 706.511719 L 2387.589844 737.460938 C 2383.191406 787.359375 2372.769531 815.671875 2348.160156 844.589844 C 2330.96875 864.78125 2333.058594 872.980469 2355.378906 872.980469 C 2364.519531 872.980469 2372 874.75 2372 876.921875 C 2372 879.089844 2365.269531 889.671875 2357.058594 900.429688 C 2337.769531 925.710938 2337.488281 933.371094 2355.988281 929.980469 C 2391.578125 923.449219 2427.550781 889.441406 2453.75 837.53125 C 2491.28125 763.191406 2497.890625 639.820312 2467.761719 576.128906 C 2453.511719 546 2413.359375 508.628906 2378.03125 492.609375 C 2307.359375 460.570312 2191.421875 470.070312 2100.949219 515.308594 C 2044 543.78125 1978.46875 595.890625 1957.101562 629.679688 C 1936.628906 662.058594 1949.378906 602.460938 1972.078125 559.671875 C 1991.371094 523.320312 2042.859375 470.539062 2088.140625 440.691406 C 2157.019531 395.308594 2201.21875 376.46875 2281.140625 358.460938 C 2327.511719 348.011719 2336.949219 347.28125 2401.878906 349.128906 C 2505.878906 352.101562 2562.628906 364.46875 2634.140625 399.78125 C 2739.371094 451.738281 2816.441406 531.878906 2848.460938 622.648438 C 2855.871094 643.640625 2853.058594 647.859375 2843.710938 629.78125 C 2839.878906 622.359375 2823.628906 602.941406 2807.609375 586.640625 C 2783.949219 562.550781 2771 553.5 2738.519531 538.328125 C 2689.511719 515.449219 2649.589844 503.328125 2587.859375 492.578125 C 2526.371094 481.871094 2453.101562 477.160156 2453.101562 483.898438 C 2453.101562 486.878906 2460.601562 488.820312 2472.089844 488.820312 C 2494.441406 488.820312 2552.160156 506.230469 2585.421875 523.011719 C 2617.140625 539.011719 2650.339844 564.230469 2711.339844 618.648438 C 2770.839844 671.75 2802.160156 693.800781 2836.25 706.609375 C 2885.589844 725.140625 2929.199219 726.738281 2982.378906 711.960938 C 3015.730469 702.699219 3028.640625 695.488281 3052.21875 672.96875 L 3072.960938 653.160156 L 3065.480469 667.988281 C 3053.808594 691.148438 3015.078125 726.070312 2985.339844 740.269531 C 2913.25 774.671875 2832.691406 778.359375 2705.839844 753.078125 C 2681.679688 748.269531 2659.589844 745.179688 2656.75 746.230469 C 2653.910156 747.28125 2657.339844 749.53125 2664.390625 751.238281 C 2671.429688 752.941406 2696.398438 759.699219 2719.878906 766.269531 C 2743.351562 772.820312 2788.488281 783.359375 2820.179688 789.679688 C 2856.128906 796.839844 2897.878906 808.910156 2931.160156 821.75 C 3045.558594 865.898438 3096.238281 869.191406 3176.238281 837.640625 C 3201.789062 827.570312 3216.570312 818.410156 3233.160156 802.378906 C 3245.480469 790.46875 3255.570312 782.519531 3255.570312 784.710938 C 3255.570312 794.179688 3227.398438 836.710938 3208.839844 855.269531 C 3184.171875 879.941406 3138.089844 904.800781 3101.140625 913.371094 C 3085.988281 916.878906 3053.070312 920.210938 3027.988281 920.769531 C 3002.910156 921.328125 2982.460938 922.808594 2982.558594 924.058594 C 2982.660156 925.308594 2995.640625 934.371094 3011.429688 944.179688 C 3085.359375 990.171875 3143.5 1050.058594 3172.28125 1109.878906 C 3180.179688 1126.308594 3193.871094 1160.890625 3202.679688 1186.710938 C 3223.378906 1247.339844 3233.410156 1261.980469 3272.089844 1288.089844 C 3390.789062 1368.191406 3518.121094 1381 3582.5 1319.308594 C 3608.441406 1294.460938 3606.089844 1305.179688 3578.179688 1339 C 3551.570312 1371.269531 3539.660156 1380.53125 3502.339844 1398 C 3439.589844 1427.359375 3357.890625 1437.859375 3282.28125 1426.269531 C 3173.859375 1409.660156 3107.070312 1372.039062 2997.320312 1265.75 C 2966.808594 1236.179688 2931.890625 1204.808594 2919.738281 1196.019531 C 2891.148438 1175.351562 2846.808594 1155.128906 2788.171875 1136.03125 C 2701.101562 1107.671875 2656.25 1098.390625 2595.140625 1096.089844 C 2501.808594 1092.570312 2502.351562 1097.019531 2598.21875 1121.269531 C 2806.410156 1173.910156 2878.550781 1212.460938 2964.980469 1317.230469 C 3059.609375 1431.949219 3156.449219 1504.800781 3267.289062 1544.621094 C 3321.871094 1564.230469 3349.929688 1568.738281 3416.96875 1568.660156 C 3507.839844 1568.550781 3567.859375 1553.429688 3622.691406 1516.808594 C 3676.988281 1480.550781 3706.660156 1431.570312 3711.789062 1369.738281 C 3714.898438 1332.210938 3714.96875 1332.039062 3718.429688 1352.550781 C 3724.109375 1386.171875 3719.050781 1422.519531 3703.5 1459.859375 C 3669.910156 1540.511719 3574.769531 1598.5 3475.769531 1598.671875 L 3445.511719 1598.710938 L 3462.589844 1608.441406 C 3471.96875 1613.800781 3492.140625 1622.75 3507.398438 1628.339844 C 3553.410156 1645.191406 3676.101562 1703.328125 3656.800781 1699.128906 C 3628.320312 1692.941406 3565.460938 1687.859375 3532.25 1689.058594 L 3495.199219 1690.378906 L 3542.308594 1741.609375 C 3663.738281 1873.628906 3709.820312 1964.589844 3735.410156 2122.828125 C 3746.5 2191.429688 3751.980469 2303.398438 3749.339844 2407.480469 C 3744.941406 2581.28125 3725.550781 2685.78125 3681.230469 2774.566406 C 3622.191406 2892.878906 3526.351562 2992.203125 3420.949219 3044.3125 C 3377.191406 3065.945312 3349.921875 3074.574219 3300.691406 3082.347656 C 3263.019531 3088.300781 3254.53125 3091.304688 3232.089844 3106.636719 C 3134.320312 3173.429688 3105.429688 3191.058594 3048.550781 3218.628906 C 2949.148438 3266.796875 2856.589844 3296.097656 2751.890625 3312.539062 C 2699.390625 3320.78125 2507.738281 3324.71875 2457.371094 3318.585938 Z M 2877.808594 3188.472656 C 2959.808594 3136.546875 2997.691406 3107.304688 3054.308594 3052.210938 C 3152.839844 2956.355469 3215.230469 2860.171875 3244.121094 2759.632812 C 3255.851562 2718.804688 3261.871094 2692.421875 3258.730469 2695.609375 C 3257.570312 2696.78125 3241.769531 2726.550781 3223.609375 2761.765625 C 3170.988281 2863.792969 3114.679688 2941.699219 3030.019531 3029.597656 C 2987.71875 3073.511719 2931.390625 3124.105469 2928.28125 3120.988281 C 2927.53125 3120.242188 2932.429688 3108.261719 2939.148438 3094.363281 C 2965.898438 3039.09375 3001.800781 2941.4375 3011.601562 2897.289062 C 3019.320312 2862.511719 3009.730469 2879.507812 2993.550781 2929.300781 C 2953.609375 3052.210938 2885.480469 3164.730469 2820.789062 3214.640625 C 2799.21875 3231.285156 2790.300781 3244.175781 2808.449219 3232.496094 C 2813.730469 3229.09375 2844.941406 3209.285156 2877.808594 3188.472656 Z M 3348.300781 3014.628906 C 3427.628906 2961.089844 3520.378906 2863.390625 3568.078125 2783.109375 C 3626.898438 2684.121094 3654.46875 2595.210938 3654.128906 2505.660156 C 3653.691406 2390.539062 3600.160156 2236.511719 3516.910156 2110.828125 C 3478.410156 2052.699219 3389.648438 1960.800781 3345.199219 1933.03125 C 3284.851562 1895.320312 3148.851562 1815.78125 3148.851562 1818.191406 C 3148.851562 1818.96875 3162.78125 1830.839844 3179.800781 1844.558594 C 3270.648438 1917.808594 3390.148438 2053.800781 3444.96875 2146.320312 C 3483.96875 2212.140625 3502.210938 2286.5 3505.890625 2394.679688 C 3509.660156 2505.011719 3493.328125 2609.609375 3454.378906 2724.753906 C 3411.761719 2850.734375 3373.019531 2927.027344 3306.910156 3015.191406 C 3266.46875 3069.117188 3267.941406 3066.136719 3287.578125 3054.339844 C 3296.96875 3048.699219 3324.289062 3030.828125 3348.300781 3014.628906 Z M 3401.929688 2925.035156 C 3403.109375 2922.101562 3418.921875 2887.046875 3437.058594 2847.136719 C 3514.78125 2676.179688 3541.589844 2571.050781 3541.519531 2437.480469 C 3541.488281 2349.78125 3527.21875 2273.738281 3488.910156 2157.070312 C 3479.011719 2126.941406 3471.929688 2102.328125 3473.148438 2102.378906 C 3483.238281 2102.769531 3555.351562 2220.480469 3573.160156 2265.628906 C 3599.671875 2332.808594 3603.460938 2356.878906 3603.21875 2456.570312 C 3603.019531 2535.351562 3601.679688 2553.839844 3593.738281 2587.191406 C 3564.261719 2711.074219 3524.109375 2790.011719 3440.929688 2887.5625 C 3406.230469 2928.257812 3397.089844 2937.039062 3401.929688 2925.035156 Z M 3378.980469 2722.863281 C 3417.21875 2608.339844 3425.480469 2463.898438 3401.320312 2332.789062 C 3390.839844 2275.921875 3365.519531 2188.011719 3351.160156 2158.640625 C 3337.269531 2130.230469 3302.558594 2092.46875 3268.109375 2068.308594 L 3241.609375 2049.710938 L 3252.96875 2069.121094 C 3269.589844 2097.460938 3287.53125 2149.53125 3297.789062 2199.148438 C 3320.96875 2311.261719 3301.46875 2472.621094 3249.390625 2599.570312 L 3242.390625 2616.640625 L 3250.949219 2605.96875 C 3266.738281 2586.28125 3306.140625 2505.929688 3319 2467.191406 C 3334.691406 2419.941406 3345.140625 2350.941406 3345.371094 2293.179688 C 3345.53125 2254.089844 3346.140625 2250.660156 3351.300781 2260.21875 C 3360.039062 2276.429688 3378.230469 2352.820312 3386.140625 2406.53125 C 3399.820312 2499.410156 3389.378906 2663.078125 3364.589844 2744.691406 C 3349.671875 2793.773438 3361.089844 2776.460938 3378.980469 2722.863281 Z M 3699.699219 2218.609375 C 3670.410156 2074.160156 3638.53125 1996.261719 3592.089844 1955.640625 C 3552.648438 1921.140625 3504.5 1899.570312 3328.128906 1837.410156 C 3224.328125 1800.820312 3098.101562 1734.039062 3086.449219 1709.539062 C 3083.671875 1703.699219 3077.238281 1683.558594 3072.171875 1664.78125 C 3059.730469 1618.738281 3034.859375 1563.25 3009.640625 1525.320312 C 2988.839844 1494.011719 2931.699219 1430.191406 2927.890625 1434 C 2926.769531 1435.109375 2934.429688 1448.109375 2944.890625 1462.890625 C 3003.140625 1545.148438 3033.261719 1616.378906 3051.019531 1713.859375 C 3053.800781 1729.121094 3057.261719 1785.691406 3058.710938 1839.578125 L 3061.351562 1937.550781 L 3073.660156 1895.070312 C 3080.441406 1871.699219 3089.941406 1835.300781 3094.789062 1814.171875 C 3099.628906 1793.039062 3103.949219 1775.171875 3104.390625 1774.460938 C 3104.839844 1773.75 3122.851562 1784.949219 3144.421875 1799.351562 C 3196.371094 1834.039062 3242.441406 1855.558594 3304.648438 1874.160156 C 3386.398438 1898.609375 3437.859375 1917.980469 3488.191406 1943.238281 C 3576.539062 1987.570312 3604.558594 2014.71875 3629.160156 2079.851562 C 3637.820312 2102.761719 3659.101562 2157.089844 3676.460938 2200.578125 C 3693.820312 2244.070312 3708.171875 2282.488281 3708.359375 2285.941406 C 3708.550781 2289.550781 3709.539062 2290.171875 3710.679688 2287.398438 C 3711.769531 2284.738281 3706.828125 2253.78125 3699.699219 2218.609375 Z M 2679.570312 1292.390625 C 2647.589844 1232.390625 2593.988281 1190.558594 2517.429688 1165.839844 C 2449.730469 1143.988281 2363.269531 1097.71875 2356.320312 1079.628906 C 2353.300781 1071.75 2366.050781 1052.25 2374.230469 1052.25 C 2377.699219 1052.25 2380.53125 1050.339844 2380.53125 1047.988281 C 2380.53125 1045.441406 2362.058594 1043.519531 2334.648438 1043.21875 C 2309.410156 1042.941406 2276.300781 1041.5 2261.070312 1040.019531 L 2233.378906 1037.320312 L 2220.140625 996.769531 C 2212.859375 974.460938 2201.519531 945.671875 2194.949219 932.78125 C 2180.589844 904.609375 2142.789062 866.640625 2113.21875 850.679688 C 2085.070312 835.488281 2042.539062 825.710938 2018.789062 828.96875 L 2000.109375 831.53125 L 2022.789062 843.910156 C 2084.691406 877.699219 2113.980469 929.578125 2131.171875 1035.910156 C 2142.238281 1104.359375 2159.25 1135.800781 2200.578125 1164.230469 C 2217.808594 1176.089844 2266.421875 1201.648438 2271.738281 1201.648438 C 2272.871094 1201.648438 2264.390625 1189.988281 2252.910156 1175.738281 C 2239.371094 1158.941406 2228.019531 1138.539062 2220.628906 1117.691406 C 2208.898438 1084.679688 2208.480469 1071.941406 2219.828125 1093.480469 C 2228.191406 1109.351562 2271.339844 1150.960938 2293.03125 1164.058594 C 2338.5 1191.519531 2350.628906 1194.160156 2444.558594 1197.03125 L 2532.070312 1199.691406 L 2565.121094 1215.390625 C 2619.109375 1241.03125 2655.261719 1269.910156 2678.011719 1305.558594 C 2693.75 1330.230469 2694.839844 1321.039062 2679.570312 1292.390625 Z M 2187.398438 1046.910156 C 2175.128906 1028.171875 2141.421875 958.351562 2144.660156 958.359375 C 2149.519531 958.371094 2168.839844 990.820312 2183.808594 1024.121094 C 2197.359375 1054.25 2198.988281 1064.589844 2187.398438 1046.910156 Z M 3187.011719 1196.828125 C 3148.53125 1131.269531 3096.128906 1075.941406 3032.269531 1033.449219 C 2990.890625 1005.921875 2971.210938 996.910156 2905.550781 975.460938 C 2856.878906 959.550781 2856.179688 959.128906 2822.039062 925.53125 C 2794.46875 898.390625 2779.578125 887.710938 2747.339844 871.910156 C 2686.988281 842.351562 2647.808594 834.410156 2697.53125 861.820312 C 2728.691406 879.011719 2798.398438 929.339844 2813.78125 945.761719 L 2826.589844 959.441406 L 2811.640625 957 C 2789.570312 953.390625 2663.308594 949.410156 2670.789062 952.558594 C 2674.308594 954.039062 2687.371094 959.011719 2699.820312 963.589844 C 2732.351562 975.578125 2798.839844 1026.910156 2845.46875 1076.039062 C 2883.859375 1116.488281 2884.910156 1117.25 2868.429688 1092.808594 C 2858.929688 1078.71875 2835.550781 1052.289062 2816.46875 1034.070312 C 2797.378906 1015.851562 2781.769531 1000.269531 2781.769531 999.460938 C 2781.769531 998.640625 2804.46875 1002.320312 2832.210938 1007.621094 C 2968.371094 1033.691406 3041.410156 1072.550781 3150.988281 1177.210938 C 3176.808594 1201.871094 3198.511719 1221.539062 3199.199219 1220.910156 C 3199.890625 1220.269531 3194.410156 1209.441406 3187.011719 1196.828125 Z M 2254.78125 817.75 C 2246.421875 804.230469 2184.519531 768.929688 2131.238281 747.308594 C 2122.078125 743.589844 2115.5 739.621094 2116.640625 738.488281 C 2120.851562 734.269531 2184.421875 753.878906 2207.359375 766.46875 C 2220.441406 773.648438 2231.140625 777.699219 2231.140625 775.46875 C 2231.140625 769.949219 2207.660156 749.761719 2183.378906 734.398438 L 2163.378906 721.75 L 2187.648438 705.320312 C 2201 696.289062 2216.730469 686.800781 2222.601562 684.230469 C 2231.789062 680.199219 2232.179688 679.300781 2225.429688 677.710938 C 2213.019531 674.78125 2145.949219 693.429688 2120.160156 706.96875 C 2107.25 713.75 2091.738281 719.300781 2085.699219 719.308594 C 2070.089844 719.320312 2035.410156 731.738281 2016.800781 743.96875 C 1999.769531 755.171875 1976.828125 782.300781 1980.929688 786.390625 C 1982.300781 787.769531 1996.789062 786.679688 2013.128906 783.980469 C 2053.308594 777.339844 2108.519531 777.808594 2146.460938 785.089844 C 2180.101562 791.550781 2229.960938 808.921875 2244.910156 819.390625 C 2254.628906 826.199219 2259.5 825.390625 2254.78125 817.75 Z M 2803.109375 2284.449219 C 2803.109375 2282.679688 2806.941406 2273.710938 2811.628906 2264.53125 C 2838.929688 2211.019531 2858.160156 2100.839844 2852.460938 2030.609375 C 2847.609375 1970.769531 2823.089844 1889.519531 2795.839844 1842.980469 C 2783.230469 1821.441406 2776.410156 1819.289062 2782.289062 1838.710938 C 2790.191406 1864.839844 2798.570312 1950.75 2798.640625 2006.25 C 2798.71875 2067.890625 2793.308594 2089.269531 2788.46875 2046.46875 C 2780.359375 1974.820312 2742.039062 1861.769531 2703.820312 1796.75 C 2677.308594 1751.640625 2617.789062 1689.570312 2579.5 1667.109375 C 2565.691406 1659 2517.371094 1637.648438 2472.128906 1619.679688 C 2337.789062 1566.289062 2263.910156 1521.019531 2226.21875 1468.980469 C 2216.179688 1455.128906 2214.058594 1453.800781 2214.058594 1461.339844 C 2214.058594 1500.378906 2261.511719 1566.269531 2373.789062 1683.121094 C 2422.589844 1733.921875 2436.78125 1752.609375 2422.148438 1746.808594 C 2419.21875 1745.648438 2388.96875 1733.679688 2354.921875 1720.21875 C 2214.421875 1664.648438 2157.589844 1622.890625 2132.988281 1557.148438 C 2121.46875 1526.371094 2117.808594 1506.699219 2111.679688 1442.820312 C 2106.359375 1387.320312 2096.230469 1335.519531 2089.949219 1331.628906 C 2087.78125 1330.300781 2086.011719 1334.980469 2086.011719 1342.050781 C 2086.011719 1369.640625 2068.179688 1437.039062 2051.46875 1472.589844 C 2028.539062 1521.371094 1981.359375 1546.320312 1909.089844 1547.890625 C 1878 1548.558594 1871.070312 1544.820312 1854.839844 1518.550781 C 1844.390625 1501.660156 1847.328125 1496.5 1871.238281 1489.800781 C 1887.019531 1485.371094 1887.878906 1484.371094 1900.039062 1456.070312 C 1905.421875 1443.558594 1908.410156 1440.648438 1912.089844 1444.328125 C 1914.78125 1447.019531 1918.328125 1449.21875 1919.980469 1449.21875 C 1924.230469 1449.21875 1968 1374.859375 1980.269531 1346.78125 C 1985.921875 1333.871094 1993.058594 1314.179688 1996.140625 1303.03125 C 2001.710938 1282.890625 2011.238281 1276.300781 2016.171875 1289.148438 C 2020.75 1301.101562 2026.25 1295.628906 2026.25 1279.121094 C 2026.25 1267.640625 2022.398438 1257.371094 2013.441406 1245.011719 C 2006.398438 1235.289062 2000.640625 1224.339844 2000.640625 1220.691406 C 2000.640625 1217.039062 1995.191406 1211.730469 1988.53125 1208.910156 C 1981.871094 1206.089844 1977.230469 1201.378906 1978.21875 1198.449219 C 1981.800781 1187.789062 2006.789062 1193.519531 2047.070312 1214.238281 C 2069.660156 1225.859375 2105.339844 1243.429688 2126.339844 1253.269531 C 2166.789062 1272.230469 2179.75 1283.871094 2293.03125 1402.871094 C 2356.21875 1469.238281 2406.328125 1497.289062 2527.789062 1534.238281 C 2675.351562 1579.128906 2740.75 1623.269531 2810.019531 1724.710938 C 2847.269531 1779.261719 2895.269531 1875.539062 2905.691406 1916.609375 C 2930.628906 2014.941406 2914.101562 2145.089844 2867.679688 2215.769531 C 2852.171875 2239.390625 2803.109375 2291.570312 2803.109375 2284.449219 Z M 2232.929688 2201.199219 C 2232.480469 2147.050781 2224.5 2118.488281 2188.671875 2042.808594 C 2172.480469 2008.621094 2154.460938 1964.03125 2148.621094 1943.71875 C 2142.769531 1923.421875 2135.820312 1902.75 2133.160156 1897.78125 C 2123.269531 1879.28125 2070.371094 1841.140625 2021.980469 1817.609375 C 1994.980469 1804.480469 1951.769531 1783.28125 1925.941406 1770.511719 C 1900.121094 1757.730469 1878.511719 1747.441406 1877.929688 1747.648438 C 1872.03125 1749.660156 1869.511719 1746.53125 1871.351562 1739.46875 C 1872.851562 1733.75 1871.480469 1730.941406 1867.210938 1730.941406 C 1863.699219 1730.941406 1858.511719 1728.140625 1855.679688 1724.730469 C 1851.261719 1719.410156 1852.460938 1719.070312 1864.109375 1722.410156 C 1871.570312 1724.558594 1879.898438 1728.140625 1882.609375 1730.371094 C 1885.308594 1732.609375 1909.621094 1742.511719 1936.621094 1752.378906 C 1963.609375 1762.25 2020.789062 1787.269531 2063.679688 1807.980469 C 2106.570312 1828.691406 2140.578125 1843.878906 2139.25 1841.730469 C 2134.679688 1834.328125 2087.980469 1809.410156 2028.390625 1782.570312 C 1995.519531 1767.769531 1956.789062 1749.140625 1942.320312 1741.171875 C 1927.859375 1733.191406 1912.128906 1726.671875 1907.359375 1726.671875 C 1902.601562 1726.671875 1897.550781 1724.808594 1896.140625 1722.53125 C 1893.308594 1717.929688 1901.75 1715.679688 1936.621094 1711.710938 C 1960.710938 1708.960938 1993.039062 1696.871094 2004.851562 1686.171875 C 2013.25 1678.578125 2015.710938 1680.441406 2038.769531 1711.730469 C 2065.851562 1748.5 2125.550781 1808.960938 2163.320312 1837.871094 C 2240.941406 1897.289062 2264.648438 1940.160156 2268.480469 2027.980469 C 2269.808594 2058.398438 2268.628906 2094.308594 2265.601562 2115.480469 C 2260.769531 2149.210938 2242.039062 2226.441406 2236.011719 2237.480469 C 2234.5 2240.238281 2233.121094 2223.910156 2232.929688 2201.199219 Z M 1838.441406 1730.738281 C 1827.878906 1723.890625 1815.019531 1718.261719 1809.878906 1718.210938 C 1804.738281 1718.160156 1799.339844 1716.210938 1797.890625 1713.859375 C 1796.441406 1711.519531 1788.851562 1709.589844 1781.019531 1709.589844 C 1772.058594 1709.589844 1765.839844 1707.128906 1764.230469 1702.921875 C 1762.820312 1699.25 1759.820312 1697.390625 1757.558594 1698.789062 C 1755.300781 1700.191406 1754.640625 1704.460938 1756.109375 1708.28125 C 1758.269531 1713.910156 1756.820312 1714.710938 1748.460938 1712.46875 C 1742.78125 1710.949219 1732.128906 1709.679688 1724.800781 1709.648438 C 1712.210938 1709.609375 1711.609375 1708.871094 1714.128906 1696.578125 C 1717.300781 1681.089844 1723.539062 1679.308594 1730.050781 1692.050781 C 1734.351562 1700.480469 1735.269531 1700.679688 1740.550781 1694.308594 C 1744.929688 1689.039062 1751.328125 1687.820312 1766.78125 1689.308594 C 1778.898438 1690.46875 1788.75 1689.351562 1790.988281 1686.558594 C 1795.910156 1680.429688 1805.21875 1598.859375 1803.738281 1574.828125 C 1803.109375 1564.589844 1803.511719 1555.300781 1804.628906 1554.179688 C 1805.738281 1553.058594 1814.289062 1562.78125 1823.609375 1575.78125 C 1848.621094 1610.601562 1851.269531 1611.859375 1880.269531 1602.730469 C 1893.660156 1598.519531 1907.96875 1593.75 1912.070312 1592.121094 C 1916.441406 1590.390625 1919.539062 1591.109375 1919.539062 1593.839844 C 1919.539062 1603.191406 1871.5 1675.519531 1856.589844 1688.609375 C 1842.300781 1701.160156 1839.738281 1701.878906 1818.511719 1699.390625 C 1793.089844 1696.398438 1788.429688 1701.621094 1809.628906 1709.339844 C 1837.25 1719.398438 1859.789062 1732.25 1859.789062 1737.929688 C 1859.789062 1745.089844 1861.421875 1745.640625 1838.441406 1730.738281 Z M 1783.988281 1728.101562 C 1777.269531 1725.390625 1781.359375 1718.128906 1789.609375 1718.128906 C 1792.988281 1718.128906 1795.761719 1721.011719 1795.761719 1724.53125 C 1795.761719 1731.121094 1793.308594 1731.859375 1783.988281 1728.101562 Z M 1654.898438 1706.828125 C 1589.261719 1696.351562 1548.191406 1683.960938 1548.191406 1674.660156 C 1548.191406 1670.601562 1585.949219 1670.109375 1608.679688 1673.859375 C 1619 1675.570312 1623.640625 1678.328125 1622.269531 1681.921875 C 1621.109375 1684.929688 1622.21875 1688.660156 1624.730469 1690.210938 C 1627.230469 1691.761719 1629.289062 1690.03125 1629.289062 1686.371094 C 1629.289062 1678.871094 1654.480469 1676.789062 1661.519531 1683.699219 C 1663.75 1685.890625 1673.25 1688.289062 1682.640625 1689.03125 C 1697.480469 1690.210938 1699.71875 1691.738281 1699.71875 1700.699219 C 1699.71875 1713.691406 1698.730469 1713.820312 1654.898438 1706.828125 Z M 1659.171875 1696.789062 C 1659.171875 1694.441406 1657.25 1692.519531 1654.898438 1692.519531 C 1652.550781 1692.519531 1650.628906 1694.441406 1650.628906 1696.789062 C 1650.628906 1699.140625 1652.550781 1701.058594 1654.898438 1701.058594 C 1657.25 1701.058594 1659.171875 1699.140625 1659.171875 1696.789062 Z M 1122.628906 1689.53125 C 1114.339844 1687.929688 1113.789062 1686.480469 1117.96875 1677.308594 C 1123.660156 1664.820312 1129.890625 1663.898438 1132.820312 1675.109375 C 1134.839844 1682.808594 1136.039062 1682.941406 1152.300781 1677.199219 C 1161.828125 1673.839844 1170.550781 1672 1171.671875 1673.128906 C 1172.789062 1674.25 1178.550781 1671.359375 1184.460938 1666.710938 C 1196.070312 1657.578125 1200.71875 1658.390625 1196.710938 1668.839844 C 1189.929688 1686.511719 1155.941406 1696 1122.628906 1689.53125 Z M 1736 1639.25 C 1736 1635.769531 1741.28125 1631.769531 1747.738281 1630.359375 C 1754.191406 1628.941406 1761.730469 1627.101562 1764.5 1626.261719 C 1771.078125 1624.261719 1780.199219 1635.390625 1776.660156 1641.109375 C 1772.160156 1648.410156 1736 1646.75 1736 1639.25 Z M 1671.96875 1630.5 C 1671.96875 1616.199219 1682.230469 1612.890625 1700.109375 1621.421875 C 1723.03125 1632.351562 1716.941406 1641.300781 1686.558594 1641.300781 C 1673.800781 1641.300781 1671.96875 1639.949219 1671.96875 1630.5 Z M 1603.789062 1628.648438 C 1598.488281 1625.308594 1599.148438 1622.921875 1607.941406 1613.558594 C 1615.878906 1605.109375 1620.980469 1603.070312 1629.179688 1605.070312 C 1643.609375 1608.609375 1652.378906 1617.78125 1649.21875 1626.03125 C 1646.300781 1633.628906 1614.558594 1635.460938 1603.789062 1628.648438 Z M 406.230469 1560.199219 C 414.5625 1504.359375 444.40625 1448.730469 481.957031 1419.050781 C 493.511719 1409.910156 522.53125 1391.628906 546.445312 1378.421875 C 636.894531 1328.449219 658.101562 1314.300781 689.941406 1282.691406 C 717.171875 1255.640625 742.300781 1222.988281 735.878906 1222.988281 C 734.894531 1222.988281 726.621094 1229.03125 717.496094 1236.398438 C 693.804688 1255.550781 646.632812 1276.371094 607.355469 1285.019531 C 529.871094 1302.078125 429.171875 1276.578125 387.757812 1229.410156 C 371.230469 1210.589844 370.382812 1202.511719 386.101562 1213.679688 C 416.714844 1235.429688 487.796875 1246.210938 529.339844 1235.410156 C 549.335938 1230.210938 595.90625 1201.828125 658.894531 1156.441406 C 746.9375 1093 815.691406 1065.089844 892.207031 1061.710938 C 947.84375 1059.25 957.058594 1063.980469 923.308594 1077.679688 C 891.910156 1090.429688 841.394531 1121.738281 820.945312 1141.140625 C 804.917969 1156.339844 779.867188 1191.179688 779.867188 1198.269531 C 779.867188 1200.179688 790.46875 1193.109375 803.429688 1182.558594 C 816.390625 1172 832.261719 1160.640625 838.699219 1157.308594 C 860.144531 1146.21875 901.257812 1140.660156 936.546875 1144.070312 L 969.8125 1147.289062 L 925.800781 1168.621094 C 869.589844 1195.859375 844.71875 1218.640625 812.140625 1272.691406 C 776.035156 1332.609375 753.953125 1360.121094 723.378906 1383.28125 C 685.765625 1411.769531 652.816406 1425.621094 576.75 1444.910156 C 540.359375 1454.140625 500.914062 1466.960938 489.089844 1473.390625 C 460.195312 1489.121094 423.027344 1529.769531 416.476562 1552.820312 C 409.054688 1578.921875 402.761719 1583.449219 406.230469 1560.199219 Z M 1682.640625 1564.46875 C 1681.191406 1562.121094 1682.039062 1560.199219 1684.519531 1560.199219 C 1687.011719 1560.199219 1689.050781 1562.121094 1689.050781 1564.46875 C 1689.050781 1566.820312 1688.199219 1568.738281 1687.160156 1568.738281 C 1686.128906 1568.738281 1684.089844 1566.820312 1682.640625 1564.46875 Z M 1757.660156 1481.230469 C 1736.179688 1448.320312 1671.96875 1322.191406 1671.96875 1312.898438 C 1671.96875 1310.398438 1670.101562 1308.359375 1667.808594 1308.359375 C 1663.558594 1308.359375 1664.109375 1314.089844 1672.300781 1355.308594 C 1680.839844 1398.351562 1681.929688 1441.828125 1674.878906 1458.710938 C 1669.058594 1472.621094 1648.761719 1491.449219 1644.328125 1487.03125 C 1643.371094 1486.058594 1644.429688 1477.03125 1646.691406 1466.960938 C 1651.75 1444.429688 1647.410156 1426.429688 1624.660156 1375.578125 C 1615.46875 1355.039062 1607.941406 1333.351562 1607.941406 1327.390625 C 1607.941406 1315.28125 1638.140625 1256.160156 1652.140625 1240.859375 C 1657.109375 1235.429688 1667.609375 1227.929688 1675.46875 1224.191406 C 1692.289062 1216.210938 1695.121094 1209.839844 1703.691406 1160.710938 C 1710.550781 1121.441406 1718.929688 1103.480469 1730.390625 1103.480469 C 1737.679688 1103.480469 1774.789062 1083.371094 1778.929688 1077.179688 C 1780.230469 1075.21875 1779.570312 1060.648438 1777.449219 1044.800781 C 1774.21875 1020.710938 1774.910156 1012.171875 1781.628906 992.859375 C 1790.171875 968.300781 1798.761719 959.578125 1810.121094 963.941406 C 1815.171875 965.871094 1817.101562 972 1817.101562 986.070312 C 1817.101562 1002.878906 1818.539062 1006.058594 1827.769531 1009.570312 C 1843.738281 1015.640625 1842.308594 1033.46875 1825.101562 1042.851562 C 1808.21875 1052.050781 1787.21875 1069.039062 1787.21875 1073.488281 C 1787.21875 1075.359375 1795.890625 1078.199219 1806.5 1079.789062 C 1817.109375 1081.378906 1838.71875 1087.980469 1854.519531 1094.441406 C 1870.328125 1100.921875 1899.109375 1110.761719 1918.46875 1116.308594 C 1937.839844 1121.871094 1953.691406 1128.140625 1953.691406 1130.25 C 1953.691406 1132.359375 1944.089844 1138.148438 1932.351562 1143.109375 C 1908.859375 1153.03125 1908.011719 1155.03125 1917.589844 1177.960938 C 1925.941406 1197.941406 1923.339844 1205.769531 1901.890625 1225.140625 C 1881.121094 1243.910156 1820.21875 1274.210938 1803.28125 1274.210938 C 1791.488281 1274.210938 1765.878906 1259.050781 1765.878906 1252.070312 C 1765.878906 1250.160156 1773.25 1248.601562 1782.269531 1248.601562 C 1815.730469 1248.601562 1893.929688 1195.738281 1893.929688 1173.121094 C 1893.929688 1155.78125 1878.160156 1158.359375 1849.410156 1180.390625 C 1823.21875 1200.460938 1799.539062 1209.988281 1759.46875 1216.558594 C 1735.488281 1220.488281 1725.691406 1228 1707.898438 1256.089844 C 1699.359375 1269.578125 1688.71875 1284.609375 1684.238281 1289.5 C 1676.191406 1298.289062 1676.371094 1298.910156 1702.128906 1353.519531 C 1716.429688 1383.859375 1740.640625 1430.25 1755.929688 1456.609375 C 1771.210938 1482.980469 1782.871094 1506.988281 1781.828125 1509.96875 C 1780.800781 1512.941406 1769.921875 1500.019531 1757.660156 1481.230469 Z M 1807.378906 1180.179688 C 1814.339844 1173.070312 1824.550781 1157.601562 1830.070312 1145.800781 L 1840.121094 1124.339844 L 1827.539062 1114.121094 C 1810.941406 1100.640625 1793.25 1093.351562 1784.890625 1096.558594 C 1776.601562 1099.738281 1777.800781 1127.558594 1786.148438 1125.890625 C 1792.730469 1124.570312 1792.761719 1125.890625 1786.539062 1139.558594 C 1778.050781 1158.179688 1769.929688 1153.238281 1772.929688 1131.308594 C 1776.101562 1108.171875 1770.128906 1104.070312 1747.171875 1113.660156 C 1732.988281 1119.589844 1731.730469 1121.539062 1731.730469 1137.621094 C 1731.730469 1185.679688 1777.070312 1211.191406 1807.378906 1180.179688 Z M 1205.121094 1428.941406 C 1225.808594 1373.898438 1246.71875 1337.140625 1273.851562 1308.171875 C 1304.5 1275.429688 1341.171875 1253.871094 1371.691406 1250.628906 L 1392.390625 1248.429688 L 1375.320312 1254.199219 C 1348.019531 1263.429688 1330.28125 1273.75 1300.050781 1298.011719 C 1265.75 1325.53125 1243.960938 1357.140625 1219.769531 1414.488281 C 1199.371094 1462.820312 1188.269531 1473.78125 1205.121094 1428.941406 Z M 1580.890625 1404.578125 C 1572.769531 1345.359375 1518.898438 1269.941406 1484.71875 1269.941406 C 1479.71875 1269.941406 1475.628906 1268.019531 1475.628906 1265.679688 C 1475.628906 1260 1485.800781 1260.289062 1507.140625 1266.601562 C 1531.609375 1273.828125 1565.878906 1308.699219 1575.480469 1336.140625 C 1579.578125 1347.859375 1584.039062 1372.339844 1585.378906 1390.53125 C 1588.019531 1426.351562 1585.121094 1435.441406 1580.890625 1404.578125 Z M 1417.878906 1256.941406 C 1416.359375 1254.480469 1417.078125 1243.429688 1419.5 1232.390625 C 1421.910156 1221.359375 1426.128906 1199.359375 1428.890625 1183.511719 C 1436.109375 1142.070312 1443.289062 1146.359375 1439.589844 1189.910156 C 1434.828125 1246.109375 1426.691406 1271.210938 1417.878906 1256.941406 Z M 1642.128906 1177.570312 C 1639.269531 1168.511719 1632.328125 1153.941406 1626.710938 1145.179688 C 1611.121094 1120.921875 1613.339844 1105.011719 1636.308594 1076.441406 C 1644.980469 1065.648438 1654.859375 1061.308594 1654.929688 1068.261719 C 1654.949219 1070.019531 1656.949219 1088.75 1659.371094 1109.878906 C 1666.128906 1168.828125 1665.828125 1175.539062 1656.078125 1185.289062 L 1647.328125 1194.039062 Z M 1264.46875 1161.679688 C 1270.441406 1121.859375 1268.890625 1091.890625 1260.378906 1082.480469 C 1253.671875 1075.058594 1253.128906 1071.769531 1257.160156 1062.910156 C 1263.460938 1049.070312 1266.410156 1049.449219 1282.191406 1066.128906 C 1309.421875 1094.890625 1310.570312 1105.800781 1290.011719 1139.960938 C 1281.820312 1153.550781 1274.011719 1168.179688 1272.640625 1172.488281 C 1267.648438 1188.230469 1261.671875 1180.339844 1264.46875 1161.679688 Z M 1195.808594 1053.160156 C 1197.191406 1043.101562 1200.898438 1027.398438 1204.039062 1018.28125 C 1210.410156 999.78125 1247.570312 945.539062 1253.878906 945.539062 C 1261.609375 945.539062 1257.820312 977.519531 1248.261719 992.878906 C 1221.320312 1036.171875 1212.261719 1049.691406 1203.191406 1060.089844 L 1193.28125 1071.460938 Z M 1715.5 1029.578125 C 1708.269531 998.121094 1707.269531 986.550781 1710.710938 974.089844 C 1713.101562 965.429688 1717.46875 958.351562 1720.410156 958.351562 C 1727.378906 958.351562 1744.539062 1016.851562 1744.539062 1040.640625 C 1744.539062 1058.769531 1738.988281 1069.328125 1729.460938 1069.328125 C 1726.800781 1069.328125 1720.519531 1051.441406 1715.5 1029.578125 Z M 1157.28125 1060.230469 C 1125.738281 1051.648438 1118.929688 1018.070312 1143.128906 990.511719 C 1157.628906 973.988281 1180.570312 968.460938 1174.71875 982.890625 C 1164.089844 1009.109375 1162.929688 1015.371094 1167.371094 1022.480469 C 1173.828125 1032.828125 1178.320312 1059.410156 1174.019531 1061.808594 C 1172.039062 1062.910156 1164.511719 1062.199219 1157.28125 1060.230469 Z M 778.46875 749.789062 C 775.578125 722.148438 779.386719 703.738281 791.246094 688.019531 C 798.371094 678.570312 801.382812 677.808594 824.6875 679.601562 C 843.511719 681.050781 848.601562 680.359375 843.894531 677.03125 C 840.371094 674.53125 833.167969 672.460938 827.886719 672.429688 C 805.292969 672.28125 825.316406 640.859375 851.324219 635.660156 C 868.570312 632.210938 904.207031 640.648438 931.398438 654.621094 L 952.738281 665.578125 L 926.714844 668.640625 C 892.257812 672.691406 873.941406 680.839844 844.703125 705.109375 C 801.207031 741.210938 788.402344 754.828125 788.402344 765 C 788.402344 785.210938 780.984375 773.839844 778.46875 749.789062 Z M 1863.648438 342.621094 C 1875.121094 312.5 1895.890625 275.070312 1910.558594 258.070312 C 1944.949219 218.210938 2008.941406 183.558594 2088.699219 161.589844 C 2127.648438 150.859375 2137.109375 149.96875 2214.058594 149.730469 C 2290.589844 149.5 2389.058594 157.519531 2389.070312 163.980469 C 2389.078125 165.390625 2353.058594 165.910156 2309.039062 165.128906 C 2155.621094 162.410156 2065.261719 182.308594 1979.058594 237.820312 C 1946.929688 258.511719 1896.890625 305.921875 1880.519531 331.179688 C 1866.308594 353.109375 1857.339844 359.199219 1863.648438 342.621094 Z M 1607.941406 197.308594 C 1607.941406 188.398438 1645.589844 129.601562 1662.679688 111.789062 C 1681.660156 92.039062 1721.160156 68.078125 1753.070312 56.980469 C 1774.460938 49.539062 1847.75 40.578125 1842.710938 46.019531 C 1841.539062 47.289062 1825.140625 54.261719 1806.261719 61.511719 C 1738.429688 87.601562 1648.351562 149.109375 1622.769531 186.828125 C 1611.199219 203.871094 1607.941406 206.179688 1607.941406 197.308594 Z M 1607.941406 197.308594 "/>
</svg>
